<svg xmlns="http://www.w3.org/2000/svg" width="41.442" height="42.593" viewBox="486.891 3096.143 41.442 42.593"><g data-name="Group 7359"><path d="M524.108 3127.762c-1.98-2.362-4.226-5.037-6.72-5.037-.897 0-1.764.352-2.579 1.046-.606.52-1.12 1.081-1.615 1.625-.466.51-.907.992-1.384 1.394-.093.078-.225.116-.402.116-1.194 0-3.759-1.71-6.535-4.357-2.76-2.632-5.047-5.516-5.826-7.35-.317-.745-.373-1.303-.153-1.532.306-.317.691-.664 1.099-1.032 1.722-1.553 4.08-3.68 2.758-5.976a.418.418 0 0 0-.055-.074 5796.377 5796.377 0 0 0-5.756-6.043.39.39 0 0 0-.035-.032c-.816-.671-1.65-1.012-2.48-1.012-1.983 0-3.653 1.949-4.997 3.515-2.505 2.937-2.8 3.54-2.378 7.422.648 6.002 4.73 13.095 10.92 18.974 6.147 5.84 13.11 9.327 18.626 9.327 1.147 0 2.235-.15 3.235-.448 1.84-.548 5.52-3.777 6.242-6.423.258-.945.107-1.756-.44-2.344-.484-.52-.99-1.121-1.525-1.76Z" fill="#96151d" fill-rule="evenodd" data-name="Path 9775"/><path d="M515.336 3116.125a1 1 0 0 1-1-1 4.994 4.994 0 0 0-4.987-4.987.999.999 0 1 1 0-1.998 6.993 6.993 0 0 1 6.986 6.984.999.999 0 0 1-1 1v.001Z" fill="#96151d" fill-rule="evenodd" data-name="Path 9776"/><path d="M521.336 3116.125a1 1 0 0 1-.999-1 10.997 10.997 0 0 0-10.986-10.985 1 1 0 0 1 0-1.998 12.995 12.995 0 0 1 12.985 12.984.998.998 0 0 1-1 .999Z" fill="#96151d" fill-rule="evenodd" data-name="Path 9777"/><path d="M527.334 3116.125a1 1 0 0 1-.998-1 16.994 16.994 0 0 0-16.985-16.984 1 1 0 1 1 0-1.998 18.99 18.99 0 0 1 18.982 18.982 1 1 0 0 1-1 1h.001Z" fill="#96151d" fill-rule="evenodd" data-name="Path 9778"/><path d="M527.334 3116.125a1 1 0 0 1-.998-1 16.994 16.994 0 0 0-16.985-16.984 1 1 0 1 1 0-1.998 18.99 18.99 0 0 1 18.982 18.982 1 1 0 0 1-1 1h.001Z" fill="#96151d" fill-rule="evenodd" data-name="Path 9779"/></g></svg>