<?xml version="1.0" encoding="UTF-8"?><svg id="Layer_1" xmlns="http://www.w3.org/2000/svg" viewBox="0 0 700 700"><defs><style>.cls-1{fill:#fff;}.cls-2{fill:#96151d;}</style></defs><circle class="cls-1" cx="348.36" cy="350" r="327.99"/><path class="cls-2" d="m348.36,686.99c-90.01,0-174.64-35.05-238.29-98.7-63.65-63.65-98.7-148.27-98.7-238.29S46.43,175.36,110.08,111.71C173.72,48.06,258.35,13.01,348.36,13.01s174.64,35.05,238.29,98.7c63.65,63.65,98.7,148.27,98.7,238.29s-35.05,174.64-98.7,238.29c-63.65,63.65-148.27,98.7-238.29,98.7Zm0-655.98c-85.21,0-165.31,33.18-225.56,93.43S29.37,264.8,29.37,350s33.18,165.31,93.43,225.56,140.35,93.43,225.56,93.43,165.31-33.18,225.56-93.43,93.43-140.35,93.43-225.56-33.18-165.31-93.43-225.56S433.57,31.01,348.36,31.01Z"/><path class="cls-2" d="m493.24,618.97h-80.26c-3.04,0-5.5-2.46-5.5-5.5s2.46-5.5,5.5-5.5h80.26c3.04,0,5.5,2.46,5.5,5.5s-2.46,5.5-5.5,5.5Z"/><path class="cls-2" d="m394.06,618.97h-38.11c-3.04,0-5.5-2.46-5.5-5.5s2.46-5.5,5.5-5.5h38.11c3.04,0,5.5,2.46,5.5,5.5s-2.46,5.5-5.5,5.5Z"/><path class="cls-2" d="m336.24,618.97h-21.81c-3.04,0-5.5-2.46-5.5-5.5s2.46-5.5,5.5-5.5h21.81c3.04,0,5.5,2.46,5.5,5.5s-2.46,5.5-5.5,5.5Z"/><path class="cls-2" d="m292.59,618.97h-11.93c-3.04,0-5.5-2.46-5.5-5.5s2.46-5.5,5.5-5.5h11.93c3.04,0,5.5,2.46,5.5,5.5s-2.46,5.5-5.5,5.5Z"/><path class="cls-2" d="m318.75,639.11h-79.26c-3.04,0-5.5-2.46-5.5-5.5s2.46-5.5,5.5-5.5h79.26c3.04,0,5.5,2.46,5.5,5.5s-2.46,5.5-5.5,5.5Z"/><path class="cls-2" d="m374.77,639.11h-38.11c-3.04,0-5.5-2.46-5.5-5.5s2.46-5.5,5.5-5.5h38.11c3.04,0,5.5,2.46,5.5,5.5s-2.46,5.5-5.5,5.5Z"/><path class="cls-2" d="m416.3,639.11h-21.81c-3.04,0-5.5-2.46-5.5-5.5s2.46-5.5,5.5-5.5h21.81c3.04,0,5.5,2.46,5.5,5.5s-2.46,5.5-5.5,5.5Z"/><path class="cls-2" d="m450.06,639.1h-11.93c-3.04,0-5.5-2.46-5.5-5.5s2.46-5.5,5.5-5.5h11.93c3.04,0,5.5,2.46,5.5,5.5s-2.46,5.5-5.5,5.5Z"/><rect class="cls-1" x="195.11" y="81.07" width="453.07" height="317.65"/><path class="cls-2" d="m648.18,404.22H195.11c-3.04,0-5.5-2.46-5.5-5.5V81.07c0-3.04,2.46-5.5,5.5-5.5h453.07c3.04,0,5.5,2.46,5.5,5.5v317.65c0,3.04-2.46,5.5-5.5,5.5Zm-447.57-11h442.07V86.57H200.61v306.65Z"/><rect class="cls-1" x="172.59" y="54.54" width="500.66" height="26.53"/><path class="cls-2" d="m673.25,86.57H172.59c-3.04,0-5.5-2.46-5.5-5.5v-26.53c0-3.04,2.46-5.5,5.5-5.5h500.66c3.04,0,5.5,2.46,5.5,5.5v26.53c0,3.04-2.46,5.5-5.5,5.5Zm-495.16-11h489.66v-15.53H178.09v15.53Z"/><path class="cls-1" d="m335.91,218.13c46.1-8.43,49.1-43.01,49.1-43.01,7.35-44.09-26.47-59.56-26.47-59.56-9.72,24.67-34.32,22.8-34.32,22.8h-102.28c-12.02,0-28.91,3.06-28.91,3.06-65.37,15.28-66.03,68.76-66.03,68.76v50.42c0,25.93,26.85,25.78,26.85,25.78"/><path class="cls-2" d="m153.85,291.88c-.98,0-14.72-.17-24.04-9.44-5.51-5.48-8.31-12.83-8.31-21.84v-50.42c0-.67.28-14.99,9.17-31.28,8.14-14.93,25.36-34.48,61.11-42.83l.27-.06c.71-.13,17.52-3.14,29.89-3.14h102.49l.21.02c.82.05,20.73,1.12,28.78-19.33l2.13-5.4,5.28,2.41c.39.18,9.73,4.53,17.99,14.8,7.56,9.41,15.71,25.81,11.64,50.51-.19,1.69-1.5,10.76-8.15,20.67-6.53,9.73-19.72,22.31-45.42,27.01l-1.98-10.82c17.6-3.22,30.48-10.73,38.26-22.32,5.57-8.29,6.35-15.68,6.35-15.75l.05-.43c4.98-29.89-10.51-45.07-18.68-50.85-9.83,17.36-27.8,21.1-36.88,20.49h-102.09c-10.83,0-26.22,2.67-27.8,2.94-60.02,14.1-61.61,61.45-61.65,63.46v50.34c0,19.65,19.16,20.28,21.35,20.29l.04,11h-.04Z"/><path class="cls-1" d="m335.91,218.13s5.8,51.91-1.69,64.4c0,0,14.98,62.26-26.76,110.31,0,0-53.71,55.55-119.58,6.24,0,0-33.74-21.95-34.03-79.73v-37.19"/><path class="cls-2" d="m244.05,424.94c-17.38,0-37.75-5.25-59.33-21.37-3.03-2.04-36.07-25.65-36.36-84.19v-37.22h11v37.19c.27,53.79,30.28,74.28,31.55,75.13l.28.2c25.62,19.18,52.18,24.13,78.95,14.73,19.43-6.82,32.12-19.14,33.29-20.31,39.16-45.24,25.58-104.7,25.44-105.29l-.52-2.18,1.15-1.93c4.51-7.51,3.26-40.17.94-60.96l10.93-1.22c.96,8.55,5.17,50.2-1.37,65.72,2.29,11.45,10.99,67.88-28.38,113.21l-.2.22c-.58.6-14.58,14.9-37.2,22.97-8.39,2.99-18.62,5.31-30.18,5.31Z"/><path class="cls-1" d="m192.99,402.7s-18.42,53.56,9.48,67.52c0,0,30.62,19.67,77.9,3.55,0,0,39.2-12.43,17.02-71.36"/><path class="cls-2" d="m243.61,485.66c-25.47,0-41.44-9.16-43.84-10.63-31.5-16.09-12.79-71.74-11.98-74.11.99-2.87,4.12-4.4,6.99-3.41,2.87.99,4.4,4.12,3.41,6.99h0c-4.67,13.64-12.57,51.16,6.74,60.82.18.09.35.18.51.29,1.16.73,29.21,17.96,73.16,2.97.04-.01.08-.02.11-.04.4-.13,10.6-3.64,16.26-15.52,5.78-12.12,4.86-28.49-2.73-48.66-1.07-2.84.37-6.01,3.21-7.08,2.84-1.07,6.02.37,7.08,3.21,8.74,23.23,9.49,42.59,2.23,57.55-7.59,15.63-21.29,20.51-22.65,20.96-14.42,4.92-27.38,6.67-38.51,6.67Z"/><path class="cls-1" d="m338.68,285.28s41.73-1.2-2.87,50.29"/><path class="cls-2" d="m335.81,341.07c-1.28,0-2.56-.44-3.6-1.34-2.3-1.99-2.55-5.46-.56-7.76,20.92-24.15,20.01-33.5,18.65-36.41-1.91-4.06-9.09-4.83-11.49-4.79-2.99.03-5.55-2.34-5.62-5.36-.07-3.03,2.3-5.54,5.33-5.63.66-.01,16.31-.33,21.71,11.05,5.15,10.85-1.48,26.66-20.26,48.34-1.09,1.26-2.62,1.9-4.16,1.9Z"/><path class="cls-1" d="m150.99,286.19s-41.73-1.2,2.87,50.29"/><path class="cls-2" d="m153.86,341.98c-1.54,0-3.07-.64-4.16-1.9-18.78-21.68-25.41-37.49-20.26-48.34,5.4-11.39,21.04-11.06,21.71-11.05,3.04.09,5.43,2.62,5.34,5.66-.09,3.03-2.63,5.39-5.64,5.34-2.41-.03-9.58.73-11.48,4.79-1.36,2.9-2.27,12.26,18.65,36.41,1.99,2.3,1.74,5.77-.56,7.76-1.04.9-2.32,1.34-3.6,1.34Z"/><path class="cls-2" d="m244.05,424.94c-17.38,0-37.75-5.25-59.33-21.37-3.03-2.04-36.07-25.65-36.36-84.19v-37.22l.33-32.57c-.08-9.2,2.98-16.97,9.1-23.09,13.98-13.98,39.15-13.86,40.22-13.87h137.4c40.67-7.66,44.01-36.78,44.13-38.02.01-.12.03-.28.05-.4,4.98-29.89-10.51-45.07-18.68-50.85-9.83,17.36-27.79,21.09-36.88,20.49h-102.09c-10.83,0-26.21,2.66-27.8,2.94-60.02,14.1-61.61,61.45-61.65,63.46v50.34c0,17.63,7.88,20.38,8.22,20.49-.11-.04-.17-.05-.17-.05l-2.64,10.68c-.67-.17-16.41-4.36-16.41-31.12v-50.42c0-.67.28-14.99,9.17-31.28,8.14-14.93,25.36-34.48,61.11-42.83.09-.02.18-.04.27-.06.71-.13,17.52-3.14,29.89-3.14h102.28c.14,0,.28,0,.42.02.82.05,20.73,1.12,28.78-19.33.55-1.4,1.66-2.52,3.06-3.08,1.4-.56,2.97-.53,4.34.1.39.18,9.73,4.53,17.99,14.8,7.56,9.41,15.71,25.81,11.64,50.51-.19,1.69-1.5,10.76-8.15,20.67-6.1,9.08-17.98,20.64-40.42,25.97,1.36,14.11,3.79,47.27-1.89,60.74,2.29,11.45,10.99,67.88-28.38,113.21-.06.07-.13.15-.2.22-.58.6-14.58,14.9-37.2,22.97-8.39,2.99-18.62,5.31-30.18,5.31Zm-46.13-201.31c-.94,0-21.88.14-32.38,10.67-4,4.02-5.92,9-5.85,15.24v.11l-.33,32.57v37.13c.27,53.79,30.28,74.28,31.55,75.13.09.06.19.13.28.19,25.75,19.27,52.44,24.18,79.34,14.59,19.34-6.9,31.75-19.01,32.9-20.17,39.28-45.38,25.59-104.7,25.45-105.29-.34-1.4-.11-2.88.63-4.12,4.16-6.94,3.41-35.38,1.44-56.07h-133.03Zm109.55,169.21h0,0Z"/><path class="cls-1" d="m241.11,297.47s-17.28,18.78-13.74,29.91c0,0,1.52,13.09,24.16,5"/><path class="cls-2" d="m238.74,340.51c-3.99,0-7.41-.87-10.22-2.62-4.82-2.99-6.16-7.49-6.5-9.22-3.88-13.45,11.83-31.43,15.05-34.92,2.06-2.23,5.54-2.38,7.77-.32,2.23,2.06,2.38,5.54.32,7.77-6.09,6.64-14.29,19.02-12.55,24.52.14.44.2.53.22.94.09.32.45,1.31,1.65,1.99,1.3.73,5.38,2.07,15.2-1.44,2.86-1.02,6.01.47,7.03,3.33s-.47,6.01-3.33,7.03c-5.51,1.97-10.4,2.96-14.64,2.96Zm-5.91-13.77h0Zm0,0h0Z"/><path class="cls-1" d="m182.78,279.25s20.38-17.89,37.23,2.92"/><path class="cls-2" d="m220.01,287.66c-1.6,0-3.19-.7-4.28-2.04-3.94-4.86-8.35-7.54-13.12-7.97-8.56-.77-16.15,5.67-16.22,5.74-2.29,1.98-5.76,1.74-7.75-.55-1.99-2.28-1.76-5.74.51-7.74.44-.39,11.03-9.55,24.32-8.42,7.9.67,14.9,4.71,20.81,12.01,1.91,2.36,1.55,5.82-.81,7.74-1.02.83-2.24,1.23-3.46,1.23Z"/><path class="cls-1" d="m304.93,279.25s-20.38-17.89-37.23,2.92"/><path class="cls-2" d="m267.7,287.66c-1.22,0-2.44-.4-3.46-1.23-2.36-1.91-2.72-5.38-.81-7.74,5.91-7.3,12.91-11.34,20.81-12.01,13.29-1.13,23.88,8.03,24.32,8.42,2.28,2,2.51,5.48.51,7.76-2,2.28-5.46,2.51-7.75.52-.15-.12-7.68-6.51-16.22-5.74-4.77.43-9.19,3.11-13.12,7.97-1.09,1.34-2.67,2.04-4.28,2.04Z"/><path class="cls-1" d="m202.47,358.51s38.43,42.44,77.29,0"/><path class="cls-2" d="m242.45,382.87s-.09,0-.13,0c-24.99-.07-43.16-19.83-43.92-20.67-2.04-2.25-1.87-5.73.39-7.77,2.25-2.04,5.72-1.87,7.76.38.27.29,15.87,17.04,35.88,17.06h.03c11.69,0,22.88-5.75,33.25-17.08,2.05-2.24,5.53-2.39,7.77-.34,2.24,2.05,2.39,5.53.34,7.77-12.55,13.7-26.46,20.65-41.37,20.65Z"/><path class="cls-1" d="m187.03,428.41h-61.47s-54.06,0-54.06,43.51v113.63h500.26"/><path class="cls-2" d="m571.75,591.05H71.49c-3.04,0-5.5-2.46-5.5-5.5v-113.63c0-20.22,10.54-35.15,30.48-43.17,14.34-5.77,28.49-5.84,29.08-5.84h61.47c3.04,0,5.5,2.46,5.5,5.5s-2.46,5.5-5.5,5.5h-61.47c-1.98,0-48.56.57-48.56,38.01v108.13h494.76c3.04,0,5.5,2.46,5.5,5.5s-2.46,5.5-5.5,5.5Z"/><path class="cls-1" d="m307,428.41h61.47s54.06-2.5,54.06,43.51c0,39.03,0,110.59,0,110.59"/><path class="cls-2" d="m422.54,588.02c-3.04,0-5.5-2.46-5.5-5.5v-110.59c0-10.74-3.32-19.35-9.86-25.6-14.02-13.39-38.21-12.43-38.45-12.42-.08,0-.17,0-.25,0h-61.47c-3.04,0-5.5-2.46-5.5-5.5s2.46-5.5,5.5-5.5h61.36c2.46-.09,29.47-.72,46.41,15.46,8.8,8.4,13.26,19.69,13.26,33.55v110.59c0,3.04-2.46,5.5-5.5,5.5Z"/><path class="cls-2" d="m133.03,588.02c-3.04,0-5.5-2.46-5.5-5.5v-71.87c0-3.04,2.46-5.5,5.5-5.5s5.5,2.46,5.5,5.5v71.87c0,3.04-2.46,5.5-5.5,5.5Z"/><path class="cls-2" d="m358.86,590.12c-3.04,0-5.5-2.46-5.5-5.5v-67.58c0-3.04,2.46-5.5,5.5-5.5s5.5,2.46,5.5,5.5v67.58c0,3.04-2.46,5.5-5.5,5.5Z"/><circle class="cls-1" cx="202.47" cy="295.28" r="5.74"/><path class="cls-2" d="m202.47,306.53c-6.2,0-11.24-5.04-11.24-11.24s5.04-11.24,11.24-11.24,11.24,5.04,11.24,11.24-5.04,11.24-11.24,11.24Zm0-11.49c-.13,0-.24.11-.24.24,0,.27.49.27.49,0,0-.13-.11-.24-.24-.24Z"/><circle class="cls-1" cx="285.95" cy="295.28" r="5.74"/><path class="cls-2" d="m285.95,306.53c-6.2,0-11.24-5.04-11.24-11.24s5.04-11.24,11.24-11.24,11.24,5.04,11.24,11.24-5.04,11.24-11.24,11.24Zm0-11.49c-.13,0-.24.11-.24.24,0,.27.49.27.49,0,0-.13-.11-.24-.24-.24Z"/><circle class="cls-1" cx="245.61" cy="491.88" r="20.66"/><path class="cls-2" d="m245.61,518.04c-14.42,0-26.16-11.73-26.16-26.16s11.73-26.16,26.16-26.16,26.16,11.74,26.16,26.16-11.74,26.16-26.16,26.16Zm0-41.32c-8.36,0-15.16,6.8-15.16,15.16s6.8,15.16,15.16,15.16,15.16-6.8,15.16-15.16-6.8-15.16-15.16-15.16Z"/><path class="cls-1" d="m256.63,510.44s13.62,17.66,11.07,72.74"/><path class="cls-2" d="m267.7,588.69c-.09,0-.17,0-.26,0-3.03-.14-5.38-2.71-5.24-5.75,1.25-27.01-1.54-44.41-4.1-54.25-2.76-10.6-5.84-14.9-5.87-14.94-1.86-2.41-1.39-5.83,1.02-7.69,2.4-1.86,5.88-1.38,7.74,1.02.61.79,14.82,19.91,12.21,76.36-.14,2.95-2.57,5.25-5.49,5.25Z"/><path class="cls-1" d="m233.7,510.44s-13.62,27.7-11.07,72.74"/><path class="cls-2" d="m222.63,588.69c-2.9,0-5.32-2.26-5.49-5.19-2.6-45.95,11.04-74.3,11.63-75.48,1.34-2.73,4.64-3.85,7.36-2.51,2.72,1.34,3.85,4.63,2.51,7.35h0c-.13.27-12.95,27.15-10.52,70.02.17,3.03-2.15,5.63-5.18,5.8-.11,0-.21,0-.32,0Z"/><polygon class="cls-1" points="228.01 463.91 214.54 507.96 171.01 428.39 185.03 414.91 228.01 463.91"/><path class="cls-2" d="m214.54,513.46c-1.99,0-3.85-1.08-4.82-2.86l-43.54-79.57c-1.19-2.18-.78-4.88,1.01-6.6l14.02-13.47c1.08-1.04,2.52-1.58,4.05-1.53,1.5.06,2.91.74,3.9,1.87l42.98,49c1.26,1.43,1.68,3.41,1.12,5.23l-13.46,44.05c-.65,2.12-2.5,3.64-4.7,3.86-.19.02-.38.03-.56.03Zm-36.69-84.02l35.25,64.43,8.75-28.63-37.17-42.37-6.83,6.57Z"/><polygon class="cls-1" points="263.19 463.91 276.66 507.96 320.19 428.39 305.17 413.91 263.19 463.91"/><path class="cls-2" d="m276.66,513.46c-.19,0-.37,0-.56-.03-2.2-.23-4.05-1.75-4.7-3.86l-13.46-44.05c-.54-1.78-.15-3.72,1.05-5.14l41.98-50c.98-1.17,2.4-1.88,3.92-1.96,1.53-.08,3.01.48,4.11,1.53l15.02,14.47c1.79,1.72,2.2,4.42,1.01,6.6l-43.53,79.57c-.97,1.78-2.83,2.86-4.82,2.86Zm-7.33-48.3l8.77,28.7,35.25-64.43-7.75-7.47-36.27,43.2Z"/><path class="cls-2" d="m435.72,180.78c-2.33,0-4.5-1.5-5.24-3.85-.91-2.9.69-5.99,3.59-6.9l149.05-47.06c2.9-.91,5.99.69,6.9,3.59.91,2.9-.69,5.99-3.59,6.9l-149.05,47.06c-.55.17-1.11.26-1.66.26Z"/><path class="cls-2" d="m575.18,155.47c-1.12,0-2.26-.34-3.23-1.05-2.46-1.79-3-5.23-1.21-7.68l13.74-18.87-23.49-6.65c-2.92-.83-4.62-3.87-3.79-6.79.83-2.92,3.87-4.62,6.79-3.79l38.68,10.95-23.04,31.62c-1.08,1.48-2.75,2.26-4.45,2.26Z"/><path class="cls-1" d="m564.22,385.55v-159.51c0-16.64-13.49-30.13-30.13-30.13h0c-16.64,0-30.13,13.49-30.13,30.13v159.51c-27.31,11.7-46.44,38.82-46.44,70.41,0,42.29,34.28,76.57,76.57,76.57s76.57-34.28,76.57-76.57c0-31.59-19.13-58.71-46.44-70.41Z"/><path class="cls-2" d="m534.1,538.03c-45.25,0-82.07-36.82-82.07-82.07,0-31.66,18.11-60.3,46.44-73.95v-155.97c0-19.64,15.98-35.63,35.62-35.63s35.63,15.98,35.63,35.63v155.97c28.33,13.65,46.44,42.28,46.44,73.95,0,45.25-36.82,82.07-82.07,82.07Zm0-336.61c-13.58,0-24.62,11.05-24.62,24.63v163.14l-3.33,1.43c-26.19,11.22-43.11,36.87-43.11,65.35,0,39.19,31.88,71.07,71.07,71.07s71.07-31.88,71.07-71.07c0-28.48-16.92-54.13-43.11-65.35l-3.33-1.43v-163.14c0-13.58-11.05-24.63-24.63-24.63Z"/><path class="cls-2" d="m457.54,333.38c-18.06,0-32.76-14.7-32.76-32.76s14.7-32.76,32.76-32.76,32.76,14.7,32.76,32.76-14.7,32.76-32.76,32.76Zm0-54.52c-12,0-21.76,9.76-21.76,21.76s9.76,21.76,21.76,21.76,21.76-9.76,21.76-21.76-9.76-21.76-21.76-21.76Z"/><path class="cls-2" d="m457.53,260.23c-3.04,0-5.5-2.46-5.5-5.5v-26.66c0-3.04,2.46-5.5,5.5-5.5s5.5,2.46,5.5,5.5v26.66c0,3.04-2.46,5.5-5.5,5.5Z"/><path class="cls-2" d="m425.11,273.66c-1.41,0-2.82-.54-3.89-1.61l-18.86-18.86c-2.15-2.15-2.15-5.63,0-7.78s5.63-2.15,7.78,0l18.86,18.86c2.15,2.15,2.15,5.63,0,7.78-1.07,1.07-2.48,1.61-3.89,1.61Z"/><path class="cls-2" d="m411.62,306.13h-26.61c-3.04,0-5.5-2.46-5.5-5.5s2.46-5.5,5.5-5.5h26.61c3.04,0,5.5,2.46,5.5,5.5s-2.46,5.5-5.5,5.5Z"/><path class="cls-2" d="m573.06,238.53h-29.82c-3.04,0-5.5-2.46-5.5-5.5s2.46-5.5,5.5-5.5h29.82c3.04,0,5.5,2.46,5.5,5.5s-2.46,5.5-5.5,5.5Z"/><path class="cls-2" d="m573.06,283.51h-29.82c-3.04,0-5.5-2.46-5.5-5.5s2.46-5.5,5.5-5.5h29.82c3.04,0,5.5,2.46,5.5,5.5s-2.46,5.5-5.5,5.5Z"/><path class="cls-2" d="m573.06,328.5h-29.82c-3.04,0-5.5-2.46-5.5-5.5s2.46-5.5,5.5-5.5h29.82c3.04,0,5.5,2.46,5.5,5.5s-2.46,5.5-5.5,5.5Z"/><path class="cls-2" d="m573.06,373.8h-29.82c-3.04,0-5.5-2.46-5.5-5.5s2.46-5.5,5.5-5.5h29.82c3.04,0,5.5,2.46,5.5,5.5s-2.46,5.5-5.5,5.5Z"/><path class="cls-2" d="m406.25,357.44c-1.41,0-2.82-.54-3.89-1.61-2.15-2.15-2.15-5.63,0-7.78l18.86-18.86c2.15-2.15,5.63-2.15,7.78,0s2.15,5.63,0,7.78l-18.86,18.86c-1.07,1.07-2.48,1.61-3.89,1.61Z"/><path class="cls-2" d="m457.53,378.67c-3.04,0-5.5-2.46-5.5-5.5v-26.66c0-3.04,2.46-5.5,5.5-5.5s5.5,2.46,5.5,5.5v26.66c0,3.04-2.46,5.5-5.5,5.5Z"/><path class="cls-2" d="m539.81,423.74c.87.15,1.77.35,2.7.6.93.25,1.92.56,2.97.93.4-.8.94-1.41,1.61-1.83.67-.42,1.52-.63,2.54-.63,1.78,0,3.04.45,3.76,1.34.73.89,1.11,2.5,1.15,4.83l.11,6.71v.33c0,1.82-.5,3.2-1.5,4.15-1,.95-2.46,1.42-4.39,1.42-1.2,0-2.14-.24-2.81-.71-.67-.47-1.41-1.49-2.21-3.06-.95-1.86-2.25-3.27-3.9-4.26-1.66-.98-3.52-1.47-5.59-1.47-2.98,0-5.31.63-6.99,1.88-1.67,1.25-2.51,2.97-2.51,5.16,0,1.67.49,3.03,1.47,4.07.98,1.04,3.24,2.26,6.77,3.68l10.15,3.87c5.02,2,8.57,4.3,10.64,6.9,2.07,2.6,3.11,6.01,3.11,10.23,0,6-1.72,10.6-5.16,13.78-3.44,3.18-8.41,4.78-14.92,4.78h-.33l-.71,11.95c-.11,1.64-.58,2.83-1.42,3.57-.84.75-2.15,1.12-3.93,1.12-1.49,0-2.57-.35-3.25-1.04-.67-.69-1.01-1.84-1.01-3.44v-.87l.82-12.66c-1.24-.22-2.47-.54-3.71-.96-1.24-.42-2.51-.96-3.82-1.61-.54.73-1.16,1.25-1.83,1.56-.67.31-1.66.46-2.97.46-1.96,0-3.31-.48-4.04-1.45-.73-.96-1.09-2.72-1.09-5.27v-6.6c0-2.36.44-4.07,1.31-5.13.87-1.05,2.26-1.58,4.15-1.58,2.84,0,4.82,1.53,5.95,4.58.29.76.51,1.33.66,1.69.8,1.71,2.35,3.08,4.64,4.12s4.93,1.56,7.91,1.56c2.69,0,4.79-.61,6.3-1.83,1.51-1.22,2.26-2.92,2.26-5.1,0-2.91-3.17-5.58-9.5-8.02l-.33-.11-10.04-3.93c-3.97-1.49-6.93-3.63-8.9-6.41-1.96-2.78-2.95-6.19-2.95-10.23,0-5.46,1.59-9.67,4.77-12.63,3.18-2.96,7.92-4.63,14.22-4.99l.44-4.37c.11-1.46.6-2.56,1.47-3.33.87-.76,2.05-1.15,3.55-1.15s2.71.34,3.55,1.01,1.25,1.63,1.25,2.86v.71l-.44,4.8Z"/></svg>