<?xml version="1.0" encoding="UTF-8"?><svg id="Layer_1" xmlns="http://www.w3.org/2000/svg" viewBox="0 0 700 700"><defs><style>.cls-1{fill:#fff;}.cls-2,.cls-3{fill:#96151d;}.cls-3{font-family:MyriadPro-Regular, 'Myriad Pro';font-size:148.87px;}</style></defs><path class="cls-2" d="m46.95,487.36c-3.04,0-5.5-2.46-5.5-5.5,0-17.92,3-34.89,8.69-49.08,6.97-17.41,17.81-30.75,32.21-39.66,2.1-1.3,4.8-1.04,6.62.63,1.82,1.67,2.3,4.34,1.18,6.54-3.66,7.19-4.16,15.9-1.71,30.06,1.32,7.66,4.64,15.36,10.07,23.31.15-63.82,46.84-118.69,111.13-130.52,1.85-.34,3.75.29,5.03,1.67,1.28,1.38,1.76,3.33,1.28,5.15-2.72,10.26-4.11,20.53-4.11,30.54,0,25.5,6.16,32.95,20.09,47.39,2.11,2.19,2.05,5.67-.14,7.78-2.19,2.11-5.67,2.05-7.78-.14-14.8-15.34-23.17-25.45-23.17-55.02,0-8.14.83-16.42,2.47-24.73-54.84,13.89-93.81,62.33-93.81,118.19,0,5.21.36,10.53,1.06,15.81.32,2.37-.94,4.67-3.1,5.7-2.16,1.02-4.74.53-6.37-1.21-13.41-14.33-21.09-28.08-23.5-42.05-1.33-7.72-1.86-14.25-1.56-19.96-11.63,11.97-23.58,33.15-23.58,69.6,0,3.04-2.46,5.5-5.5,5.5Z"/><circle class="cls-1" cx="345.33" cy="350" r="327.99"/><path class="cls-2" d="m345.33,686.99c-90.01,0-174.64-35.05-238.29-98.7-63.65-63.65-98.7-148.27-98.7-238.29S43.39,175.36,107.04,111.71C170.69,48.06,255.31,13.01,345.33,13.01s174.64,35.05,238.29,98.7c63.65,63.65,98.7,148.27,98.7,238.29s-35.05,174.64-98.7,238.29c-63.65,63.65-148.27,98.7-238.29,98.7Zm0-655.98c-85.21,0-165.31,33.18-225.56,93.43-60.25,60.25-93.43,140.36-93.43,225.56s33.18,165.31,93.43,225.56c60.25,60.25,140.35,93.43,225.56,93.43s165.31-33.18,225.56-93.43c60.25-60.25,93.43-140.35,93.43-225.56s-33.18-165.31-93.43-225.56c-60.25-60.25-140.35-93.43-225.56-93.43Z"/><rect class="cls-2" x="118.66" y="580.05" width="456.45" height="11"/><path class="cls-2" d="m274.18,618.97h-80.26c-3.04,0-5.5-2.46-5.5-5.5s2.46-5.5,5.5-5.5h80.26c3.04,0,5.5,2.46,5.5,5.5s-2.46,5.5-5.5,5.5Z"/><path class="cls-2" d="m313.68,618.97h-18.59c-3.04,0-5.5-2.46-5.5-5.5s2.46-5.5,5.5-5.5h18.59c3.04,0,5.5,2.46,5.5,5.5s-2.46,5.5-5.5,5.5Z"/><path class="cls-2" d="m405.01,618.97h-21.81c-3.04,0-5.5-2.46-5.5-5.5s2.46-5.5,5.5-5.5h21.81c3.04,0,5.5,2.46,5.5,5.5s-2.46,5.5-5.5,5.5Z"/><path class="cls-2" d="m434.77,618.97h-11.93c-3.04,0-5.5-2.46-5.5-5.5s2.46-5.5,5.5-5.5h11.93c3.04,0,5.5,2.46,5.5,5.5s-2.46,5.5-5.5,5.5Z"/><path class="cls-2" d="m462.57,639.11h-80.26c-3.04,0-5.5-2.46-5.5-5.5s2.46-5.5,5.5-5.5h80.26c3.04,0,5.5,2.46,5.5,5.5s-2.46,5.5-5.5,5.5Z"/><path class="cls-2" d="m304.66,639.11h-21.81c-3.04,0-5.5-2.46-5.5-5.5s2.46-5.5,5.5-5.5h21.81c3.04,0,5.5,2.46,5.5,5.5s-2.46,5.5-5.5,5.5Z"/><path class="cls-2" d="m261.01,639.1h-11.93c-3.04,0-5.5-2.46-5.5-5.5s2.46-5.5,5.5-5.5h11.93c3.04,0,5.5,2.46,5.5,5.5s-2.46,5.5-5.5,5.5Z"/><path class="cls-2" d="m447.02,244.35c-1.01,0-2.03-.28-2.94-.85-11.07-7.01-22.03-25.27-26.18-32.7-42.8-.23-74.75-15.96-94.19-29.31-12.53-8.61-21.52-17.24-26.95-23.11-11.14,27.82-23.26,49.39-36.08,64.21-10.94,12.64-18.52,15.65-19.35,15.95l-3.76-10.34-.09.04c.25-.1,25.51-11.04,52.35-82.38l3.58-9.52,6,8.21c.1.14,10.65,14.31,30.89,28.14,18.57,12.68,49.35,27.69,90.78,27.12l3.38-.05,1.57,2.99c3.56,6.79,14.81,25.7,23.93,31.47,2.57,1.63,3.33,5.02,1.7,7.59-1.05,1.65-2.83,2.56-4.65,2.56Z"/><path class="cls-2" d="m343.26,406.91c-19.86,0-43.13-6-67.81-24.43-3.29-2.21-41.16-29.1-41.5-96.22v-.07s0-.07,0-.07c0-.37.68-36.25.05-51.54-1.76-4.27-8.51-21.69-10.79-42.89-3.5-32.58,5.41-58.25,25.77-74.25l.42-.3c.58-.37,13.23-8.41,26.41-8.41.11,0,.21,0,.32,0,3.81-4.43,13.21-14.2,28.23-22.56,18.09-10.06,48.16-19.92,88.67-9.77,2.63.47,23.5,4.64,44.43,20.88,20.19,15.67,44.18,45.94,43.79,101.22l-.02,2.52-1.92,1.63c-.74.63-7.08,5.71-19.64,7-2.11,6.47-6.47,21.16-7.12,33.7.84,3.85,4.12,20.87,2.57,43.6-1.6,23.49-8.93,57.73-34.74,87.45l-.2.22c-.67.69-16.65,17.01-42.49,26.23-9.57,3.41-21.25,6.06-34.44,6.06Zm-98.3-120.64c.18,32.63,10.13,54.56,18.45,67.21,9.02,13.72,18.14,19.84,18.23,19.9l.28.2c29.74,22.26,60.59,28,91.7,17.05,22.6-7.95,37.31-22.3,38.58-23.57,45.5-52.54,29.65-121.24,29.48-121.92l-.18-.74.03-.76c.74-18.42,8.61-40.17,8.95-41.09l1.27-3.49,3.71-.13c7.46-.25,12.31-2.15,14.79-3.46-.37-39.11-13.53-69.11-39.15-89.19-19.73-15.46-39.92-19.03-40.12-19.06l-.43-.09c-29.61-7.46-56.66-4.62-80.39,8.42-17.81,9.79-27.02,22-27.11,22.12l-1.89,2.54-3.15-.35c-9.67-1.1-20.83,5.44-22.45,6.42-17.31,13.74-24.51,35.35-21.4,64.24,2.4,22.28,10.26,40.45,10.34,40.64l.41.93.05,1.01c.71,14.87.05,50.85,0,53.17Z"/><path class="cls-2" d="m342.72,476.79c-29.2,0-47.44-10.54-50.03-12.14-35.65-18.18-14.33-81.59-13.4-84.29.99-2.87,4.12-4.4,6.99-3.41,2.87.99,4.4,4.12,3.41,6.99-.25.73-19.22,57.29,8.17,71l.51.29c.32.2,33.91,20.9,84.91,3.5l.11-.04c.48-.16,12.51-4.27,19.2-18.26,6.77-14.16,5.73-33.23-3.1-56.68-1.07-2.84.37-6.01,3.21-7.08,2.84-1.07,6.02.37,7.08,3.21,9.98,26.51,10.85,48.57,2.59,65.57-8.62,17.75-24.16,23.23-25.58,23.7-16.52,5.63-31.34,7.63-44.07,7.63Z"/><path class="cls-2" d="m337.14,309.75c-4.44,0-8.22-.96-11.33-2.89-5.33-3.31-6.76-8.29-7.12-10.12-2-6.89.39-15.71,7.1-26.25,4.67-7.33,9.81-12.94,10.03-13.17,2.06-2.23,5.54-2.38,7.77-.32,2.24,2.06,2.38,5.54.32,7.77-7.36,8.01-16.75,22.32-14.62,29.03l.21.67v.29c.11.41.56,1.86,2.28,2.85,1.98,1.14,6.97,2.45,18.22-1.58,2.86-1.02,6.01.47,7.03,3.33,1.02,2.86-.47,6.01-3.33,7.03-6.25,2.24-11.79,3.35-16.57,3.35Z"/><path class="cls-2" d="m315.59,248.93c-1.6,0-3.19-.7-4.28-2.04-4.68-5.78-9.96-8.96-15.69-9.47-10.21-.9-19.18,6.72-19.27,6.8-2.29,1.98-5.76,1.74-7.75-.54-1.99-2.28-1.77-5.74.51-7.74.5-.44,12.45-10.76,27.37-9.49,8.85.75,16.72,5.3,23.37,13.52,1.91,2.36,1.55,5.82-.81,7.74-1.02.83-2.24,1.23-3.46,1.23Z"/><path class="cls-2" d="m370.46,248.93c-1.22,0-2.44-.4-3.46-1.23-2.36-1.91-2.72-5.38-.81-7.74,6.65-8.22,14.52-12.76,23.37-13.52,14.93-1.27,26.87,9.05,27.37,9.49,2.28,2,2.51,5.48.51,7.76-2,2.28-5.47,2.51-7.75.52-.12-.1-9.05-7.7-19.27-6.8-5.73.51-11.01,3.7-15.69,9.47-1.09,1.34-2.67,2.04-4.28,2.04Z"/><path class="cls-2" d="m341.41,358.5h-.15c-28.39-.08-49.07-22.56-49.94-23.52-2.04-2.25-1.87-5.73.39-7.77,2.25-2.04,5.72-1.87,7.76.38h0c.18.2,18.4,19.88,41.9,19.91h.04c13.7,0,26.78-6.7,38.88-19.92,2.05-2.24,5.53-2.39,7.77-.34,2.24,2.05,2.39,5.53.34,7.77-14.28,15.59-30.08,23.49-46.99,23.49Z"/><path class="cls-2" d="m144.66,586.25c-3.04,0-5.5-2.46-5.5-5.5v-118.94c0-22.9,11.95-39.82,34.56-48.92,16.35-6.58,32.48-6.66,33.16-6.66h70.74c3.04,0,5.5,2.46,5.5,5.5s-2.46,5.5-5.5,5.5h-70.74c-.14,0-14.92.1-29.32,5.97-18.18,7.41-27.4,20.39-27.4,38.61v118.94c0,3.04-2.46,5.5-5.5,5.5Z"/><path class="cls-2" d="m548.66,586.25c-3.04,0-5.5-2.46-5.5-5.5v-118.94c0-12.57-3.89-22.67-11.56-30.02-16.3-15.61-44.62-14.57-44.91-14.56h-.25s-70.75,0-70.75,0c-3.04,0-5.5-2.46-5.5-5.5s2.46-5.5,5.5-5.5h70.63c2.66-.11,33.53-.87,52.83,17.56,9.96,9.51,15,22.3,15,38.01v118.94c0,3.04-2.46,5.5-5.5,5.5Z"/><path class="cls-2" d="m210.91,591.05c-3.04,0-5.5-2.46-5.5-5.5v-74.61c0-3.04,2.46-5.5,5.5-5.5s5.5,2.46,5.5,5.5v74.61c0,3.04-2.46,5.5-5.5,5.5Z"/><path class="cls-2" d="m475.37,588.9c-3.04,0-5.5-2.46-5.5-5.5v-69.67c0-3.04,2.46-5.5,5.5-5.5s5.5,2.46,5.5,5.5v69.67c0,3.04-2.46,5.5-5.5,5.5Z"/><path class="cls-2" d="m295.4,270.64c-6.68,0-12.11-5.43-12.11-12.11s5.43-12.11,12.11-12.11,12.11,5.43,12.11,12.11-5.43,12.11-12.11,12.11Zm0-13.22c-.61,0-1.11.5-1.11,1.11s.5,1.11,1.11,1.11,1.11-.5,1.11-1.11-.5-1.11-1.11-1.11Z"/><path class="cls-2" d="m391.47,270.64c-6.68,0-12.11-5.43-12.11-12.11s5.43-12.11,12.11-12.11,12.11,5.43,12.11,12.11-5.43,12.11-12.11,12.11Zm0-13.22c-.61,0-1.11.5-1.11,1.11s.5,1.11,1.11,1.11,1.11-.5,1.11-1.11-.5-1.11-1.11-1.11Z"/><path class="cls-2" d="m239.45,311.44c-1.54,0-3.07-.64-4.16-1.9-21.37-24.67-28.96-42.58-23.19-54.73,5.99-12.62,23.47-12.26,24.21-12.24,3.04.09,5.43,2.62,5.34,5.66-.09,3.03-2.59,5.42-5.64,5.34-.18,0-11.15-.04-13.98,5.98-1.64,3.49-2.81,14.63,21.58,42.79,1.99,2.3,1.74,5.77-.56,7.76-1.04.9-2.32,1.34-3.6,1.34Z"/><path class="cls-2" d="m448.85,310.39c-1.28,0-2.56-.44-3.6-1.34-2.3-1.99-2.55-5.46-.56-7.76,24.42-28.2,23.22-39.34,21.57-42.82-2.85-6.01-13.87-5.96-13.95-5.96-3.02.05-5.57-2.3-5.66-5.34-.09-3.04,2.3-5.57,5.34-5.66.74-.02,18.22-.38,24.21,12.24,5.76,12.16-1.82,30.06-23.19,54.73-1.09,1.26-2.62,1.9-4.16,1.9Z"/><path class="cls-1" d="m179.69,258.29c12.81-13.78,20.5-31.38,20.5-50.57,0-44.13-40.66-79.91-90.83-79.91S18.54,163.58,18.54,207.71s40.66,79.91,90.83,79.91c16.06,0,31.15-3.67,44.24-10.1.67-.33,1.32-.68,1.98-1.03l28.15,34.88-4.04-53.08Z"/><path class="cls-2" d="m183.73,316.87c-1.63,0-3.21-.72-4.28-2.05l-25.37-31.44c-13.72,6.38-29.13,9.74-44.72,9.74-53.11,0-96.33-38.31-96.33-85.41s43.21-85.41,96.33-85.41,96.33,38.31,96.33,85.41c0,19.02-7.21,37.57-20.34,52.51l3.87,50.72c.18,2.4-1.22,4.64-3.46,5.53-.66.26-1.35.39-2.03.39Zm-28.15-45.88c1.62,0,3.21.71,4.28,2.05l17.04,21.11-2.7-35.44c-.12-1.53.41-3.04,1.46-4.16,12.27-13.19,19.03-29.82,19.03-46.83,0-41.03-38.28-74.41-85.33-74.41S24.04,166.69,24.04,207.72s38.28,74.41,85.33,74.41c14.66,0,29.12-3.3,41.81-9.54.42-.21.83-.42,1.24-.64l.62-.33c.81-.42,1.68-.62,2.54-.62Z"/><path class="cls-1" d="m497.87,241.15c-15.06-16.19-24.1-36.89-24.1-59.44,0-51.87,47.79-93.92,106.75-93.92,58.96,0,106.75,42.05,106.75,93.92,0,51.87-47.79,93.92-106.75,93.92-18.88,0-36.61-4.31-52-11.87-.79-.39-1.55-.8-2.33-1.21l-33.08,40.99,4.75-62.39Z"/><path class="cls-2" d="m493.11,309.04c-.68,0-1.37-.13-2.03-.39-2.24-.89-3.64-3.13-3.46-5.53l4.57-60.02c-15.45-17.43-23.94-39.14-23.94-61.38,0-54.82,50.36-99.42,112.25-99.42s112.25,44.6,112.25,99.42-50.36,99.42-112.25,99.42c-18.45,0-36.67-4.03-52.83-11.67l-30.29,37.54c-1.07,1.32-2.65,2.05-4.28,2.05Zm87.41-215.74c-55.83,0-101.25,39.66-101.25,88.42,0,20.23,8.04,40.01,22.63,55.69,1.04,1.12,1.57,2.63,1.46,4.16l-3.41,44.75,21.97-27.23c1.65-2.04,4.5-2.63,6.83-1.42l.71.37c.5.26.99.53,1.5.78,15.05,7.4,32.19,11.31,49.57,11.31,55.83,0,101.25-39.66,101.25-88.42s-45.42-88.42-101.25-88.42Z"/><text class="cls-3" transform="translate(59.87 216.67)"><tspan x="0" y="0">...</tspan></text><path class="cls-2" d="m593.33,129.18c1.27.21,2.59.5,3.94.88,1.35.37,2.8.82,4.34,1.35.58-1.17,1.37-2.06,2.35-2.67.98-.61,2.21-.92,3.7-.92,2.6,0,4.43.65,5.49,1.95,1.06,1.3,1.62,3.65,1.67,7.04l.16,9.79v.48c0,2.65-.73,4.67-2.19,6.05-1.46,1.38-3.59,2.07-6.41,2.07-1.75,0-3.12-.34-4.1-1.04-.98-.69-2.06-2.17-3.22-4.46-1.38-2.71-3.28-4.78-5.69-6.21-2.42-1.43-5.13-2.15-8.16-2.15-4.35,0-7.75.92-10.19,2.75-2.44,1.83-3.66,4.34-3.66,7.52,0,2.44.72,4.42,2.15,5.93,1.43,1.51,4.72,3.3,9.87,5.37l14.8,5.65c7.32,2.92,12.5,6.28,15.52,10.07,3.02,3.79,4.54,8.77,4.54,14.92,0,8.75-2.51,15.45-7.52,20.1-5.01,4.64-12.27,6.96-21.77,6.96h-.48l-1.03,17.43c-.16,2.39-.85,4.12-2.07,5.21-1.22,1.09-3.13,1.63-5.73,1.63-2.18,0-3.75-.5-4.74-1.51-.98-1.01-1.47-2.68-1.47-5.01v-1.27l1.19-18.46c-1.8-.32-3.61-.78-5.41-1.39-1.8-.61-3.66-1.39-5.57-2.35-.8,1.06-1.68,1.82-2.67,2.27-.98.45-2.43.68-4.34.68-2.87,0-4.83-.7-5.89-2.11-1.06-1.4-1.59-3.96-1.59-7.68v-9.63c0-3.45.64-5.94,1.91-7.48,1.27-1.54,3.29-2.31,6.05-2.31,4.14,0,7.03,2.23,8.68,6.69.42,1.11.74,1.94.96,2.47,1.17,2.5,3.42,4.5,6.76,6.01,3.34,1.51,7.19,2.27,11.54,2.27,3.93,0,6.99-.89,9.19-2.67,2.2-1.78,3.3-4.26,3.3-7.44,0-4.24-4.62-8.14-13.85-11.7l-.48-.16-14.64-5.73c-5.78-2.17-10.11-5.29-12.97-9.35-2.87-4.06-4.3-9.03-4.3-14.92,0-7.96,2.32-14.1,6.96-18.43,4.64-4.32,11.55-6.75,20.73-7.28l.64-6.37c.16-2.12.88-3.74,2.15-4.85s3-1.67,5.17-1.67,3.95.49,5.17,1.47c1.22.98,1.83,2.38,1.83,4.18v1.03l-.64,7Z"/><path class="cls-1" d="m399.56,523.96c-6.81-14.56-18.91-25.46-34.08-30.68-15.17-5.23-31.41-4.1-45.72,3.16-28.32,14.39-40.14,50.49-25.81,78.84,7.89,15.61,22.21,26.82,39.27,30.74,3.17.73,5.56,3.33,5.95,6.47.24,1.95-.28,3.91-1.48,5.51-4.92,6.56-10.78,16.28-10.78,25.3,0,10.82,8.8,19.62,19.62,19.62s19.62-8.8,19.62-19.62c0-8.88-5.57-18.29-10.25-24.61-1.24-1.68-1.73-3.82-1.35-5.88l.22-1.16c.55-2.94,2.8-5.29,5.74-5.98,3.16-.75,6.01-1.65,8.48-2.69,1.74-.73,3.47-1.55,5.13-2.45,13.21-7.08,23.1-18.89,27.88-33.25,4.77-14.36,3.91-29.74-2.44-43.31h0Z"/><path class="cls-2" d="m346.53,668.41c-13.85,0-25.12-11.27-25.12-25.12,0-10.53,6.46-21.36,11.88-28.6.34-.46.49-.99.42-1.53-.11-.85-.81-1.58-1.72-1.79-18.66-4.29-34.31-16.55-42.94-33.62-15.67-31-2.75-70.49,28.23-86.22,15.64-7.95,33.4-9.18,50-3.46,16.59,5.71,29.83,17.63,37.27,33.55l2.27,4.85-.2.1c5.01,13.58,5.25,28.45.61,42.43-5.21,15.7-16.05,28.61-30.5,36.36-1.8.97-3.69,1.87-5.61,2.67-2.75,1.15-5.89,2.15-9.33,2.96-.82.2-1.45.84-1.6,1.64l-.22,1.16c-.1.55.03,1.15.37,1.6,5.17,6.99,11.33,17.51,11.33,27.88,0,13.85-11.27,25.12-25.12,25.12Zm-.24-172.88c-8.25,0-16.44,1.95-24.03,5.81-25.67,13.04-36.38,45.76-23.39,71.45,7.15,14.15,20.13,24.3,35.59,27.86,5.41,1.24,9.5,5.73,10.17,11.15.42,3.37-.48,6.74-2.54,9.48-6.24,8.33-9.68,16.15-9.68,22,0,7.79,6.34,14.12,14.12,14.12s14.12-6.33,14.12-14.12c0-5.76-3.26-13.34-9.17-21.34-2.15-2.9-3-6.61-2.33-10.16l.22-1.16c.95-5.08,4.83-9.13,9.88-10.33,2.86-.68,5.42-1.49,7.62-2.41,1.59-.67,3.16-1.41,4.65-2.22,11.97-6.42,20.94-17.12,25.26-30.14,4.33-13.02,3.55-26.96-2.2-39.25l-.21-.44c-6.21-12.98-17.09-22.69-30.68-27.37-5.7-1.96-11.56-2.94-17.4-2.94Z"/><path class="cls-2" d="m399.56,523.96c-6.81-14.56-18.91-25.46-34.08-30.68-15.17-5.23-31.41-4.1-45.72,3.16-28.32,14.39-40.14,50.49-25.81,78.84,7.89,15.61,22.21,26.82,39.27,30.74,3.17.73,5.56,3.33,5.95,6.47.24,1.95-.28,3.91-1.48,5.51-4.92,6.56-10.78,16.28-10.78,25.3,0,10.82,8.8,19.62,19.62,19.62s19.62-8.8,19.62-19.62c0-8.88-5.57-18.29-10.25-24.61-1.24-1.68-1.73-3.82-1.35-5.88l.22-1.16c.55-2.94,2.8-5.29,5.74-5.98,3.16-.75,6.01-1.65,8.48-2.69,1.74-.73,3.47-1.55,5.13-2.45,13.21-7.08,23.1-18.89,27.88-33.25,4.77-14.36,3.91-29.74-2.44-43.31h0Zm-32.03-21.55c9.36,4.25,17.1,11.14,22.41,19.94l-15.41,7.81c-3.87-6.64-8.84-12.5-14.73-17.48,2.85-3.19,5.43-6.62,7.72-10.27h0Zm-22.88,51.57l8.46,16.69c-4.73,2.7-9.14,5.88-13.16,9.48-5.73-4.68-10.55-10.23-14.25-16.56l18.95-9.61Zm-22.42,2.71c-2.67-6.27-4.25-12.91-4.74-19.75,5.46-1.11,10.81-2.8,15.94-5.08l7.72,15.23-18.93,9.6Zm18.11-28.31c5.06-2.87,9.77-6.29,14.03-10.18,5.31,4.41,9.78,9.6,13.27,15.47l-19.58,9.93-7.71-15.21Zm5.96-30.61c4.62,0,9.25.65,13.8,1.93-1.95,2.94-4.11,5.71-6.47,8.3-5.48-3.69-11.58-6.73-18.21-9.03,3.58-.79,7.22-1.2,10.87-1.2Zm1.68,15.77c-3.43,3-7.15,5.66-11.13,7.94l-8.43-16.63c7.19,2.03,13.75,4.97,19.57,8.69h0Zm-26.4-5.08l8.37,16.5c-4.05,1.76-8.24,3.14-12.52,4.1.34-6.8,1.72-13.72,4.15-20.6Zm-8.76,2.02c-1.94,6.64-3,13.31-3.18,19.87-3.52.38-7.08.5-10.64.33,2.91-7.66,7.6-14.65,13.81-20.19h0Zm-16.06,27.79c1.83.13,3.67.21,5.5.21,2.53,0,5.06-.13,7.58-.38.61,7.64,2.44,15.07,5.5,22.1l-16.04,8.13c-3.98-9.69-4.67-20.19-2.53-30.06h0Zm29.84,57.52c-9.89-4.15-18.22-11.32-23.82-20.57l16.03-8.13c4.07,7.07,9.34,13.29,15.62,18.54-2.88,3.15-5.5,6.55-7.83,10.16Zm31.84,47.5c0,6.56-5.34,11.9-11.9,11.9s-11.9-5.34-11.9-11.9c0-5.3,3.37-12.83,9.24-20.67,1.55-2.07,2.53-4.43,2.91-6.92.27,2.71,1.27,5.34,2.91,7.56,3.26,4.42,8.74,12.89,8.74,20.02h0Zm-11.56-31.4c.22-1.37-3.36-12.05-12.68-13.6,1.95-2.83,4.1-5.51,6.43-8.02,5.01,3.35,10.52,6.16,16.45,8.36-5.09,1.83-9.52,6.49-10.21,13.25Zm-.48-27.11c3.17-2.7,6.59-5.11,10.23-7.21l7.8,15.38c-6.57-1.98-12.6-4.74-18.03-8.18h0Zm24.85,4.55l-7.73-15.25c3.94-1.73,8.01-3.09,12.16-4.06-.55,6.37-2.03,12.86-4.43,19.32h0Zm-11.23-22.15l-8.46-16.69,19.59-9.93c2.9,6.78,4.49,14.03,4.75,21.51-5.44,1.12-10.76,2.83-15.88,5.12Zm20.19,19.76c1.86-6.12,2.97-12.24,3.33-18.28,3.3-.38,6.63-.52,9.96-.42-2.91,7.06-7.4,13.48-13.29,18.7h0Zm15.76-26.31c-4.14-.25-8.28-.16-12.38.26-.4-8.27-2.24-16.3-5.53-23.83l15.4-7.81c4.27,10.25,4.94,21.21,2.51,31.38h0Z"/><path class="cls-2" d="m639.68,487.36c-3.04,0-5.5-2.46-5.5-5.5,0-18.24-3.37-49.11-23.59-69.71.32,5.75-.21,12.31-1.55,20.08-2.41,13.96-10.09,27.72-23.5,42.05-1.63,1.75-4.21,2.24-6.37,1.21-2.16-1.02-3.41-3.33-3.1-5.7.71-5.28,1.06-10.6,1.06-15.81,0-55.86-38.97-104.31-93.81-118.19,1.64,8.3,2.47,16.59,2.47,24.73,0,29.57-8.37,39.69-23.17,55.02-2.11,2.18-5.59,2.25-7.78.14s-2.25-5.59-.14-7.78c13.93-14.43,20.09-21.89,20.09-47.39,0-10.01-1.38-20.29-4.11-30.54-.48-1.82,0-3.76,1.28-5.15,1.28-1.38,3.18-2.02,5.03-1.67,64.29,11.83,110.98,66.7,111.13,130.52,5.43-7.95,8.75-15.66,10.07-23.31,2.44-14.16,1.95-22.87-1.71-30.06-1.12-2.2-.64-4.87,1.18-6.54,1.82-1.67,4.52-1.93,6.62-.63,14.4,8.91,25.24,22.25,32.21,39.66,5.68,14.19,8.69,31.16,8.69,49.08,0,3.04-2.46,5.5-5.5,5.5Z"/><path class="cls-2" d="m46.95,484.57c-3.04,0-5.5-2.46-5.5-5.5,0-17.92,3-34.89,8.69-49.08,6.97-17.4,17.81-30.75,32.21-39.66,2.1-1.3,4.8-1.04,6.62.63,1.81,1.67,2.3,4.34,1.18,6.54-3.66,7.19-4.16,15.9-1.71,30.06,1.32,7.66,4.64,15.36,10.07,23.31.15-63.82,46.84-118.69,111.13-130.52,1.85-.34,3.75.29,5.03,1.67,1.28,1.38,1.76,3.33,1.28,5.15-2.72,10.26-4.11,20.53-4.11,30.54,0,25.5,6.16,32.95,20.09,47.39,2.11,2.19,2.05,5.67-.14,7.78-2.19,2.11-5.67,2.05-7.78-.14-14.8-15.33-23.17-25.45-23.17-55.02,0-8.14.83-16.42,2.47-24.73-54.84,13.89-93.81,62.33-93.81,118.19,0,5.21.36,10.54,1.06,15.81.32,2.37-.94,4.67-3.1,5.7-2.16,1.02-4.74.53-6.37-1.21-13.41-14.33-21.09-28.08-23.5-42.05-1.33-7.72-1.86-14.25-1.56-19.96-11.63,11.97-23.58,33.15-23.58,69.6,0,3.04-2.46,5.5-5.5,5.5Z"/></svg>