<?xml version="1.0" encoding="UTF-8"?><svg id="Layer_1" xmlns="http://www.w3.org/2000/svg" viewBox="0 0 700 700"><defs><style>.cls-1,.cls-2{fill:#fff;}.cls-3{fill:#96151d;}.cls-2{fill-rule:evenodd;}</style></defs><circle class="cls-1" cx="345.33" cy="350" r="327.99"/><path class="cls-3" d="m284.17,618.97h-80.26c-3.04,0-5.5-2.46-5.5-5.5s2.46-5.5,5.5-5.5h80.26c3.04,0,5.5,2.46,5.5,5.5s-2.46,5.5-5.5,5.5Z"/><path class="cls-3" d="m343.19,618.97h-38.11c-3.04,0-5.5-2.46-5.5-5.5s2.46-5.5,5.5-5.5h38.11c3.04,0,5.5,2.46,5.5,5.5s-2.46,5.5-5.5,5.5Z"/><path class="cls-3" d="m384.73,618.97h-21.81c-3.04,0-5.5-2.46-5.5-5.5s2.46-5.5,5.5-5.5h21.81c3.04,0,5.5,2.46,5.5,5.5s-2.46,5.5-5.5,5.5Z"/><path class="cls-3" d="m418.48,618.97h-11.93c-3.04,0-5.5-2.46-5.5-5.5s2.46-5.5,5.5-5.5h11.93c3.04,0,5.5,2.46,5.5,5.5s-2.46,5.5-5.5,5.5Z"/><path class="cls-3" d="m463.66,639.11h-80.26c-3.04,0-5.5-2.46-5.5-5.5s2.46-5.5,5.5-5.5h80.26c3.04,0,5.5,2.46,5.5,5.5s-2.46,5.5-5.5,5.5Z"/><path class="cls-3" d="m362.48,639.11h-38.11c-3.04,0-5.5-2.46-5.5-5.5s2.46-5.5,5.5-5.5h38.11c3.04,0,5.5,2.46,5.5,5.5s-2.46,5.5-5.5,5.5Z"/><path class="cls-3" d="m304.66,639.11h-21.81c-3.04,0-5.5-2.46-5.5-5.5s2.46-5.5,5.5-5.5h21.81c3.04,0,5.5,2.46,5.5,5.5s-2.46,5.5-5.5,5.5Z"/><path class="cls-3" d="m261.01,639.1h-11.93c-3.04,0-5.5-2.46-5.5-5.5s2.46-5.5,5.5-5.5h11.93c3.04,0,5.5,2.46,5.5,5.5s-2.46,5.5-5.5,5.5Z"/><path class="cls-3" d="m133.65,284.24c-27.81,0-50.44-22.63-50.44-50.44s22.62-50.44,50.44-50.44,50.44,22.62,50.44,50.44-22.63,50.44-50.44,50.44Zm0-88.4c-20.93,0-37.96,17.03-37.96,37.96s17.03,37.97,37.96,37.97,37.97-17.03,37.97-37.97-17.03-37.96-37.97-37.96Z"/><path class="cls-3" d="m354.33,314.48c-39.28,0-71.24-31.96-71.24-71.24s31.96-71.24,71.24-71.24,71.24,31.96,71.24,71.24-31.96,71.24-71.24,71.24Zm0-130.02c-32.41,0-58.77,26.37-58.77,58.77s26.37,58.77,58.77,58.77,58.77-26.37,58.77-58.77-26.37-58.77-58.77-58.77Z"/><path class="cls-2" d="m575.11,585.55H57l-15.63-60.4h503.97s0,37.54-33.9,58.81"/><path class="cls-3" d="m575.11,591.79H57c-2.84,0-5.32-1.92-6.04-4.67l-15.63-60.4c-.48-1.87-.08-3.85,1.11-5.38,1.18-1.53,3-2.42,4.93-2.42h503.96c3.44,0,6.24,2.79,6.24,6.24,0,1.45-.31,31.35-24.07,54.17h47.61c3.44,0,6.24,2.79,6.24,6.24s-2.79,6.24-6.24,6.24Zm-513.29-12.47h445.44c.26-.23.54-.45.85-.64,22.67-14.22,28.75-36.52,30.39-47.29H49.42l12.4,47.93Z"/><path class="cls-3" d="m301.25,531.22h-30.03c-3.42,0-6.19-2.77-6.19-6.19v-37.9c0-3.42,2.77-6.19,6.19-6.19h30.03c3.42,0,6.19,2.77,6.19,6.19v37.9c0,3.42-2.77,6.19-6.19,6.19Zm-23.83-12.39h17.64v-25.51h-17.64v25.51Z"/><path class="cls-3" d="m357.1,531.39h-30.03c-3.44,0-6.24-2.79-6.24-6.24v-53.57c0-3.44,2.79-6.24,6.24-6.24h30.03c3.44,0,6.24,2.79,6.24,6.24v53.57c0,3.44-2.79,6.24-6.24,6.24Zm-23.79-12.47h17.56v-41.1h-17.56v41.1Z"/><path class="cls-3" d="m413.35,529.66h-30.03c-2.91,0-5.27-2.36-5.27-5.27v-80.62c0-2.91,2.36-5.27,5.27-5.27h30.03c2.91,0,5.27,2.36,5.27,5.27v80.62c0,2.91-2.36,5.27-5.27,5.27Zm-24.76-10.54h19.49v-70.08h-19.49v70.08Z"/><path class="cls-3" d="m256.41,472.94c-3.23,0-5.97-2.49-6.21-5.77-.26-3.43,2.32-6.42,5.75-6.68.24-.02,21.53-1.76,50.77-12.86,26.91-10.21,66.3-30.67,101.12-70.16,2.28-2.58,6.22-2.83,8.8-.55,2.58,2.28,2.83,6.22.55,8.8-36.66,41.58-78.16,63.05-106.52,73.75-30.84,11.63-52.87,13.39-53.79,13.46-.16.01-.32.02-.47.02Z"/><path class="cls-3" d="m268.59,401.02c-.54,0-1.08-.07-1.63-.22-3.32-.9-5.29-4.32-4.4-7.64.58-2.14,14.53-52.97,50.3-99.9,2.09-2.74,6-3.27,8.74-1.18,2.74,2.09,3.27,6,1.18,8.74-34.22,44.91-48.04,95.08-48.18,95.58-.75,2.78-3.27,4.61-6.02,4.61Z"/><path class="cls-3" d="m335.67,382.93c-11.14,0-24.28-4.25-37.28-18.33-2.34-2.53-2.18-6.47.35-8.81,2.53-2.34,6.48-2.18,8.81.35,10.39,11.25,21.76,15.92,33.81,13.89,9.3-1.57,15.75-6.66,15.81-6.71.08-.06.18-.14.27-.21,9.53-6.89,9.62-10.66,9.54-11.35-.2-1.78-2.96-3.49-3.72-3.81-.12-.05-.24-.11-.36-.17-22.62-11.36-41.98-4.08-42.79-3.77-.03.01-.09.04-.12.05-14.57,5.37-26.88,7.39-37.15,7.39-29.04,0-41.81-16.15-43.52-18.51-8.98-11.3-12.57-21-10.66-28.82,1.28-5.24,4.85-8.58,7.63-9.92,17.88-9.46,41.37,17.74,45.92,23.31,2.18,2.67,1.78,6.6-.89,8.77-2.67,2.17-6.59,1.78-8.77-.89h0c-8.71-10.65-24.15-23.59-30.48-20.14-.28.15-.15.12-.3.17-.27.2-.84.75-1.05,1.9-.33,1.8-.17,7.16,8.45,17.97.1.12.19.25.28.37.68.96,18.09,24.41,66.17,6.7,1.95-.75,25.59-9.37,52.74,4.19,1.73.78,10.02,4.96,11.02,13.79.85,7.52-4.06,15.19-14.59,22.82-1.85,1.4-13.51,9.74-29.11,9.74Zm-94.04-77.44h0Z"/><path class="cls-3" d="m266.67,443.73c-2,0-4.1-.21-6.31-.66-.05-.01-.11-.02-.16-.04l-76.4-17.9c-1.79-.38-10.82-2.78-19.51-14.23-.02-.03-.05-.06-.07-.1l-54.37-74.59s-.07-.1-.11-.15c-.45-.65-4.4-6.59-5.99-14.51-2.3-11.47,1.62-21.43,11.04-28.05.07-.05.14-.1.21-.14.23-.15,23.32-14.6,39.91,9.6l48.14,68.07,66.84,17.66c2.43.42,13.53,2.81,20,12.1,4.5,6.47,5.72,14.52,3.63,23.95-.09.39-.21.76-.36,1.12-2.9,6.7-11.84,17.88-26.49,17.88Zm-3.72-12.86c11.8,2.38,17.36-7.16,18.53-9.49,1.12-5.55.52-10.06-1.78-13.41-3.95-5.75-11.92-7-12-7.01-.23-.03-.49-.09-.71-.14l-69.32-18.31c-1.42-.37-2.65-1.23-3.5-2.43l-49.5-70c-9.21-13.44-20.41-7.76-22.85-6.28-12.36,8.86-2.7,23.88-1.84,25.16l54.27,74.46c5.86,7.7,11.34,9.32,12.05,9.5.12.02.08.02.25.05l76.41,17.9Z"/><path class="cls-3" d="m182.25,478.68c-.75,0-1.37-.04-1.78-.08h-74.32c-8.88.29-14.96-1.87-18.08-6.45-2.61-3.83-2.35-8.34-1.27-11.32l13.17-55.5.04-.14c5.45-20.79,3.31-30.78,3.28-30.88-9.75-41.56.29-64.45.72-65.41,1.42-3.14,5.11-4.53,8.25-3.11,3.13,1.41,4.52,5.09,3.12,8.22-.06.15-2.2,5.19-3.27,14.63-1,8.83-1.23,23.41,3.3,42.76.39,1.59,2.82,13.37-3.33,36.88l-13.25,55.85c-.11.48-.11.57-.3.95,0,.03-.01.06-.02.1.56.32,2.47,1.12,7.29.94.08,0,.15,0,.23,0h74.77c.29,0,.58.02.87.06.74.08,2.88.01,3.91-.81.17-.14.69-.55.89-1.97v-17c0-3.44,2.79-6.24,6.24-6.24s6.24,2.79,6.24,6.24v17.38c0,.22-.01.44-.04.67-.61,5.72-3.43,9.02-5.68,10.78-3.77,2.94-8.28,3.45-10.98,3.45Z"/><path class="cls-3" d="m244.06,436.31c-.48,0-.97-.06-1.45-.17-3.35-.8-5.42-4.16-4.62-7.51l9.39-39.29c.8-3.35,4.17-5.41,7.51-4.62,3.35.8,5.42,4.16,4.62,7.51l-9.39,39.29c-.68,2.86-3.24,4.79-6.06,4.79Z"/><path class="cls-3" d="m175.75,529.55c-.21,0-.41,0-.62-.03-3.43-.34-5.93-3.39-5.59-6.82l5.05-50.95c.34-3.43,3.39-5.93,6.82-5.59,3.43.34,5.93,3.39,5.59,6.82l-5.05,50.95c-.32,3.22-3.03,5.62-6.2,5.62Z"/><path class="cls-3" d="m122.35,529.55c-.1,0-.2,0-.3,0-3.44-.16-6.1-3.08-5.93-6.53.61-12.81-7.53-25.1-7.61-25.22-1.92-2.85-1.16-6.73,1.69-8.65,2.85-1.92,6.71-1.18,8.64,1.66.43.64,10.55,15.77,9.74,32.8-.16,3.34-2.92,5.94-6.22,5.94Z"/><path class="cls-3" d="m371.52,208.47c.88.42,1.77.9,2.67,1.45.9.55,1.86,1.17,2.86,1.87.66-.72,1.41-1.21,2.25-1.45.84-.24,1.79-.21,2.87.1,1.88.54,3.07,1.38,3.57,2.54.5,1.16.42,2.97-.24,5.44l-1.9,7.12-.1.35c-.55,1.92-1.49,3.23-2.83,3.93-1.34.7-3.03.76-5.06.18-1.27-.36-2.18-.89-2.75-1.59s-1.04-2-1.42-3.89c-.44-2.24-1.39-4.13-2.84-5.66s-3.27-2.61-5.46-3.23c-3.15-.9-5.79-.93-7.94-.11-2.14.82-3.54,2.39-4.2,4.69-.5,1.77-.39,3.34.33,4.73.72,1.39,2.74,3.36,6.04,5.92l9.55,7.14c4.7,3.62,7.75,7.11,9.16,10.48,1.41,3.37,1.48,7.28.21,11.73-1.8,6.33-5,10.67-9.58,12.99-4.58,2.33-10.31,2.51-17.18.56l-.35-.1-4.34,12.4c-.61,1.69-1.46,2.81-2.57,3.35-1.11.54-2.6.54-4.48,0-1.58-.45-2.61-1.14-3.12-2.07s-.51-2.24-.03-3.93l.26-.92,4.67-13.12c-1.24-.6-2.45-1.31-3.63-2.12-1.18-.81-2.36-1.76-3.55-2.85-.79.61-1.59.97-2.4,1.09-.8.12-1.9-.01-3.28-.4-2.07-.59-3.35-1.5-3.83-2.74-.48-1.24-.33-3.2.43-5.88l1.98-6.97c.71-2.5,1.68-4.17,2.92-5.02,1.24-.85,2.86-.99,4.85-.42,3,.85,4.63,3.06,4.9,6.62.08.89.14,1.55.18,1.98.33,2.05,1.55,3.96,3.66,5.74,2.11,1.78,4.73,3.12,7.88,4.02,2.84.81,5.24.8,7.2-.04,1.96-.83,3.27-2.4,3.92-4.7.87-3.07-1.66-6.84-7.61-11.32l-.31-.21-9.42-7.16c-3.74-2.76-6.22-5.91-7.46-9.44-1.24-3.53-1.25-7.42-.04-11.68,1.64-5.76,4.58-9.72,8.83-11.9,4.25-2.17,9.75-2.51,16.5-1l1.77-4.48c.55-1.5,1.4-2.53,2.55-3.07,1.15-.54,2.51-.59,4.09-.15,1.61.46,2.76,1.17,3.44,2.13.68.96.84,2.1.46,3.4l-.21.75-1.9,4.94Z"/><path class="cls-3" d="m596.71,455.82c-1.5,0-3.01-.54-4.21-1.63l-67.73-61.96-68.8,61.62c-2.55,2.29-6.47,2.08-8.77-.45l-13.53-14.87c-1.12-1.23-1.7-2.86-1.61-4.52s.83-3.22,2.08-4.33l86.43-77.03c2.38-2.12,5.97-2.1,8.33.03l85.66,77.54c1.24,1.12,1.97,2.68,2.04,4.35.07,1.67-.52,3.29-1.66,4.51l-13.66,14.75c-1.23,1.33-2.9,2-4.58,2Zm-71.89-78.24c1.51,0,3.02.54,4.21,1.63l67.32,61.59,5.17-5.58-76.83-69.55-77.55,69.12,5.13,5.64,68.4-61.26c1.18-1.06,2.67-1.59,4.16-1.59Z"/><path class="cls-3" d="m464.56,500.5c-3.44,0-6.24-2.79-6.24-6.24v-22.51c0-3.44,2.79-6.24,6.24-6.24s6.24,2.79,6.24,6.24v22.51c0,3.44-2.79,6.24-6.24,6.24Z"/><path class="cls-3" d="m585.26,539.09c-3.44,0-6.24-2.79-6.24-6.24v-61.1c0-3.44,2.79-6.24,6.24-6.24s6.24,2.79,6.24,6.24v61.1c0,3.44-2.79,6.24-6.24,6.24Z"/><path class="cls-3" d="m484.29,498.83c-3.44,0-6.24-2.79-6.24-6.24v-32.37c0-3.44,2.79-6.24,6.24-6.24h26.61c3.44,0,6.24,2.79,6.24,6.24v32.36c0,3.44-2.79,6.24-6.24,6.24s-6.24-2.79-6.24-6.24v-26.13h-14.14v26.14c0,3.44-2.79,6.24-6.24,6.24Z"/><path class="cls-3" d="m465.71,387.83c-3.44,0-6.24-2.79-6.24-6.24v-25.49c0-3.44,2.79-6.24,6.24-6.24h18.58c3.44,0,6.24,2.79,6.24,6.24v10.14c0,3.44-2.79,6.24-6.24,6.24s-6.24-2.79-6.24-6.24v-3.9h-6.11v19.25c0,3.44-2.79,6.24-6.24,6.24Z"/><path class="cls-3" d="m565.04,488.5h-30.98c-3.44,0-6.24-2.79-6.24-6.24v-32.68c0-3.44,2.79-6.24,6.24-6.24h30.98c3.44,0,6.24,2.79,6.24,6.24v32.68c0,3.44-2.79,6.24-6.24,6.24Zm-24.74-12.47h18.51v-20.21h-18.51v20.21Z"/><path class="cls-1" d="m441.79,199.27h200.26c8.09,0,14.67-6.58,14.67-14.67s-6.58-14.67-14.67-14.67h-72.53c-6.38,0-11.57-5.19-11.57-11.57s5.19-11.57,11.57-11.57h98.13c8.09,0,14.67-6.58,14.67-14.67s-6.58-14.66-14.67-14.66h0s-144.39,0-144.39,0c-6.38,0-11.57-5.19-11.57-11.57s5.19-11.57,11.57-11.57h51.56c8.09,0,14.67-6.58,14.67-14.67s-6.58-14.67-14.67-14.67h-161.47"/><path class="cls-3" d="m642.05,205.19h-200.26c-3.27,0-5.92-2.65-5.92-5.92s2.65-5.92,5.92-5.92h200.26c4.82,0,8.75-3.93,8.75-8.75s-3.93-8.75-8.75-8.75h-72.53c-9.64,0-17.49-7.85-17.49-17.49s7.85-17.49,17.49-17.49h98.13c4.82,0,8.75-3.93,8.75-8.75s-3.88-8.7-8.67-8.74h-144.47c-9.64,0-17.49-7.85-17.49-17.49s7.85-17.49,17.49-17.49h51.56c4.82,0,8.75-3.93,8.75-8.75s-3.93-8.75-8.75-8.75h-161.47c-3.27,0-5.92-2.65-5.92-5.92s2.65-5.92,5.92-5.92h161.47c11.36,0,20.59,9.24,20.59,20.59s-9.24,20.59-20.59,20.59h-51.56c-3.11,0-5.65,2.53-5.65,5.65s2.53,5.65,5.65,5.65h144.28s.07,0,.11,0c11.36,0,20.59,9.23,20.59,20.59s-9.24,20.59-20.59,20.59h-98.13c-3.11,0-5.65,2.53-5.65,5.65s2.53,5.65,5.65,5.65h72.53c11.36,0,20.59,9.24,20.59,20.59s-9.24,20.59-20.59,20.59Z"/><path class="cls-3" d="m365.76,100.26c-12.63,0-22.78-3.79-29.35-10.96-5.4-5.89-7.98-13.71-7.26-22.02.88-10.15,6.95-19.2,16.23-24.2,8.8-4.75,19.03-4.88,27.35-.36,10.33,5.59,13.13,15.33,12.31,22.59-.94,8.3-6.39,15-13.88,17.08-13.26,3.68-21.68-5.84-24.1-13.13-1.03-3.1.65-6.46,3.75-7.49,3.11-1.04,6.46.65,7.49,3.75.25.76,2.69,7.4,9.7,5.46,2.81-.78,4.88-3.52,5.28-7,.19-1.65.3-7.33-6.18-10.84-4.8-2.61-10.81-2.47-16.08.38-5.76,3.1-9.52,8.63-10.05,14.8-.43,4.96,1.06,9.58,4.19,12.99,4.27,4.66,11.4,7.12,20.62,7.12h123.25c3.27,0,5.92,2.65,5.92,5.92s-2.65,5.92-5.92,5.92h-123.25Z"/><path class="cls-3" d="m296.96,126.49c-12.46,0-22.5-3.71-29.06-10.72-5.47-5.85-8.16-13.7-7.57-22.12.71-10.37,6.79-19.58,16.27-24.63,8.94-4.75,19.21-4.74,27.47.01,10.28,5.93,12.96,15.75,12.05,22.97-1.02,8.06-6.43,14.58-13.78,16.61-13.25,3.68-21.67-5.83-24.09-13.13-1.03-3.1.65-6.46,3.75-7.49,3.1-1.03,6.46.64,7.49,3.75.25.76,2.68,7.4,9.69,5.46,2.74-.76,4.78-3.38,5.2-6.69.21-1.67.39-7.4-6.21-11.21-4.7-2.7-10.69-2.64-16,.18-5.84,3.11-9.59,8.71-10.02,14.98-.35,5.11,1.21,9.8,4.41,13.22,4.26,4.56,11.31,6.96,20.4,6.96h157.24c3.27,0,5.92,2.64,5.92,5.91,0,3.27-2.65,5.92-5.92,5.92h-157.24Z"/><path class="cls-3" d="m251.47,198.41c-5.35,0-10.68-1.38-15.4-4.01-8.98-4.99-14.52-13.66-15.22-23.79-.59-8.41,2.1-16.26,7.55-22.11,6.56-7.02,16.61-10.73,29.07-10.73h271.24c3.27,0,5.92,2.65,5.92,5.92s-2.65,5.92-5.92,5.92h-271.24c-9.1,0-16.16,2.41-20.42,6.97-3.19,3.42-4.75,8.12-4.4,13.21.42,6.05,3.75,11.25,9.16,14.25,2.92,1.62,6.35,2.52,9.65,2.52h.02c2.72,0,5.24-.58,7.31-1.68,6.31-3.35,6.21-9.13,6.02-10.82-.38-3.5-2.4-6.25-5.13-7.01-7.03-1.96-9.45,4.68-9.7,5.45-1.03,3.1-4.38,4.79-7.49,3.76-3.1-1.03-4.79-4.38-3.76-7.49,2.42-7.3,10.84-16.82,24.11-13.13,7.43,2.06,12.83,8.79,13.74,17.14.8,7.35-2,17.12-12.24,22.56-3.76,2.01-8.21,3.07-12.86,3.07h-.04Z"/><path class="cls-3" d="m486.95,289.89c-3.27,0-5.92-2.65-5.92-5.92v-10.92c0-3.27,2.65-5.92,5.92-5.92s5.92,2.65,5.92,5.92v10.92c0,3.27-2.65,5.92-5.92,5.92Z"/><path class="cls-3" d="m449.74,306.22c-3.27,0-5.92-2.65-5.92-5.92v-10.92c0-3.27,2.65-5.92,5.92-5.92s5.92,2.65,5.92,5.92v10.92c0,3.27-2.65,5.92-5.92,5.92Z"/><path class="cls-3" d="m449.74,262.6c-3.27,0-5.92-2.65-5.92-5.92v-10.92c0-3.27,2.65-5.92,5.92-5.92s5.92,2.65,5.92,5.92v10.92c0,3.27-2.65,5.92-5.92,5.92Z"/><path class="cls-3" d="m486.95,240.81c-3.27,0-5.92-2.65-5.92-5.92v-10.92c0-3.27,2.65-5.92,5.92-5.92s5.92,2.65,5.92,5.92v10.92c0,3.27-2.65,5.92-5.92,5.92Z"/><path class="cls-3" d="m598.58,305.86c-3.27,0-5.92-2.65-5.92-5.92v-10.92c0-3.27,2.65-5.92,5.92-5.92s5.92,2.65,5.92,5.92v10.92c0,3.27-2.65,5.92-5.92,5.92Z"/><path class="cls-3" d="m561.38,338.92c-3.27,0-5.92-2.65-5.92-5.92v-10.92c0-3.27,2.65-5.92,5.92-5.92s5.92,2.65,5.92,5.92v10.92c0,3.27-2.65,5.92-5.92,5.92Z"/><path class="cls-3" d="m561.38,240.81c-3.27,0-5.92-2.65-5.92-5.92v-10.92c0-3.27,2.65-5.92,5.92-5.92s5.92,2.65,5.92,5.92v10.92c0,3.27-2.65,5.92-5.92,5.92Z"/><path class="cls-3" d="m561.38,289.39c-3.27,0-5.92-2.65-5.92-5.92v-10.92c0-3.27,2.65-5.92,5.92-5.92s5.92,2.65,5.92,5.92v10.92c0,3.27-2.65,5.92-5.92,5.92Z"/><path class="cls-3" d="m598.59,240.45c-3.27,0-5.92-2.65-5.92-5.92v-10.92c0-3.27,2.65-5.92,5.92-5.92s5.92,2.65,5.92,5.92v10.92c0,3.27-2.65,5.92-5.92,5.92Z"/><path class="cls-3" d="m598.58,369.67c-3.27,0-5.92-2.65-5.92-5.92v-10.92c0-3.27,2.65-5.92,5.92-5.92s5.92,2.65,5.92,5.92v10.92c0,3.27-2.65,5.92-5.92,5.92Z"/><path class="cls-3" d="m524.17,300.41c-3.27,0-5.92-2.65-5.92-5.92v-10.92c0-3.27,2.65-5.92,5.92-5.92s5.92,2.65,5.92,5.92v10.92c0,3.27-2.65,5.92-5.92,5.92Z"/><path class="cls-3" d="m524.16,246.26c-3.27,0-5.92-2.65-5.92-5.92v-10.92c0-3.27,2.65-5.92,5.92-5.92s5.92,2.65,5.92,5.92v10.92c0,3.27-2.65,5.92-5.92,5.92Z"/><path class="cls-3" d="m491.99,126.49h-12.54c-3.27,0-5.92-2.65-5.92-5.92s2.65-5.92,5.92-5.92h12.54c3.27,0,5.92,2.65,5.92,5.92s-2.65,5.92-5.92,5.92Z"/><path class="cls-3" d="m539.76,179.65h-127.77c-3.27,0-5.92-2.65-5.92-5.92s2.65-5.92,5.92-5.92h127.77c3.27,0,5.92,2.65,5.92,5.92s-2.65,5.92-5.92,5.92Z"/><path class="cls-3" d="m81.59,529.55c-35.91-52.52-55.25-114.54-55.25-179.55,0-85.21,33.18-165.31,93.43-225.56S260.12,31.01,345.33,31.01c40.61,0,80.06,7.55,116.75,21.97h42.75c-48.46-26.1-102.91-39.97-159.5-39.97-90.01,0-174.64,35.05-238.29,98.7C43.39,175.36,8.34,259.99,8.34,350c0,64.54,18.02,126.3,51.68,179.55h21.57Z"/><path class="cls-3" d="m651.77,209.43c-3.01,1.18-6.29,1.84-9.72,1.84h-9.32c20.66,42.72,31.59,89.88,31.59,138.73,0,85.21-33.18,165.31-93.43,225.56s-140.36,93.43-225.56,93.43-158.7-30.52-218.01-86.15h-25.59c1.75,1.83,3.52,3.65,5.32,5.45,63.65,63.65,148.27,98.7,238.29,98.7s174.64-35.05,238.29-98.7c63.65-63.65,98.7-148.27,98.7-238.29,0-49.33-10.55-97.04-30.55-140.57Z"/></svg>