<?xml version="1.0" encoding="UTF-8"?><svg id="Layer_1" xmlns="http://www.w3.org/2000/svg" viewBox="0 0 700 700"><defs><style>.cls-1{fill:#fff;}.cls-2{fill:#96151d;}</style></defs><circle class="cls-1" cx="345.33" cy="350" r="327.99"/><path class="cls-2" d="m345.33,686.99c-90.01,0-174.64-35.05-238.29-98.7-63.65-63.65-98.7-148.27-98.7-238.29S43.39,175.36,107.04,111.71C170.69,48.06,255.32,13.01,345.33,13.01s174.64,35.05,238.29,98.7c63.65,63.65,98.7,148.27,98.7,238.29s-35.05,174.64-98.7,238.29c-63.65,63.65-148.27,98.7-238.29,98.7Zm0-655.98c-85.21,0-165.31,33.18-225.56,93.43S26.34,264.8,26.34,350s33.18,165.31,93.43,225.56,140.35,93.43,225.56,93.43,165.31-33.18,225.56-93.43c60.25-60.25,93.43-140.35,93.43-225.56s-33.18-165.31-93.43-225.56c-60.25-60.25-140.35-93.43-225.56-93.43Z"/><rect class="cls-2" x="118.66" y="580.05" width="456.46" height="11"/><path class="cls-2" d="m483.66,618.97h-80.26c-3.04,0-5.5-2.46-5.5-5.5s2.46-5.5,5.5-5.5h80.26c3.04,0,5.5,2.46,5.5,5.5s-2.46,5.5-5.5,5.5Z"/><path class="cls-2" d="m383.48,618.97h-38.11c-3.04,0-5.5-2.46-5.5-5.5s2.46-5.5,5.5-5.5h38.11c3.04,0,5.5,2.46,5.5,5.5s-2.46,5.5-5.5,5.5Z"/><path class="cls-2" d="m325.66,618.97h-21.81c-3.04,0-5.5-2.46-5.5-5.5s2.46-5.5,5.5-5.5h21.81c3.04,0,5.5,2.46,5.5,5.5s-2.46,5.5-5.5,5.5Z"/><path class="cls-2" d="m282.01,618.97h-11.93c-3.04,0-5.5-2.46-5.5-5.5s2.46-5.5,5.5-5.5h11.93c3.04,0,5.5,2.46,5.5,5.5s-2.46,5.5-5.5,5.5Z"/><path class="cls-2" d="m312.17,639.11h-80.26c-3.04,0-5.5-2.46-5.5-5.5s2.46-5.5,5.5-5.5h80.26c3.04,0,5.5,2.46,5.5,5.5s-2.46,5.5-5.5,5.5Z"/><path class="cls-2" d="m371.19,639.11h-38.11c-3.04,0-5.5-2.46-5.5-5.5s2.46-5.5,5.5-5.5h38.11c3.04,0,5.5,2.46,5.5,5.5s-2.46,5.5-5.5,5.5Z"/><path class="cls-2" d="m412.73,639.11h-21.81c-3.04,0-5.5-2.46-5.5-5.5s2.46-5.5,5.5-5.5h21.81c3.04,0,5.5,2.46,5.5,5.5s-2.46,5.5-5.5,5.5Z"/><path class="cls-2" d="m446.48,639.1h-11.93c-3.04,0-5.5-2.46-5.5-5.5s2.46-5.5,5.5-5.5h11.93c3.04,0,5.5,2.46,5.5,5.5s-2.46,5.5-5.5,5.5Z"/><path class="cls-2" d="m341.98,587.77c-37.63,0-68.24-30.61-68.24-68.24v-51.21c0-37.62,30.61-68.24,68.24-68.24s68.24,30.61,68.24,68.24v51.21c0,37.63-30.61,68.24-68.24,68.24Zm0-176.68c-31.56,0-57.24,25.68-57.24,57.24v51.21c0,31.56,25.68,57.24,57.24,57.24s57.24-25.68,57.24-57.24v-51.21c0-31.56-25.68-57.24-57.24-57.24Z"/><path class="cls-2" d="m404.71,473.82h-125.47c-3.04,0-5.5-2.46-5.5-5.5s2.46-5.5,5.5-5.5h125.47c3.04,0,5.5,2.46,5.5,5.5s-2.46,5.5-5.5,5.5Z"/><path class="cls-2" d="m341.98,473.82c-3.04,0-5.5-2.46-5.5-5.5v-62.74c0-3.04,2.46-5.5,5.5-5.5s5.5,2.46,5.5,5.5v62.74c0,3.04-2.46,5.5-5.5,5.5Z"/><path class="cls-2" d="m341.82,409.83c-3.04,0-5.5-2.46-5.5-5.5v-14.91c0-1.44-1.26-2.7-2.7-2.7h-132.5c-11.46,0-20.78-9.32-20.78-20.78s9.13-20.78,20.78-20.78h349.27c3.69,0,6.8-3.11,6.8-6.8,0-3.04,2.46-5.5,5.5-5.5s5.5,2.46,5.5,5.5c0,9.81-7.99,17.8-17.8,17.8H201.13c-5.58,0-9.78,4.21-9.78,9.78s4.39,9.78,9.78,9.78h132.5c7.55,0,13.7,6.15,13.7,13.7v14.91c0,3.04-2.46,5.5-5.5,5.5Z"/><path class="cls-2" d="m562.7,343.86c-3.04,0-5.5-2.46-5.5-5.5v-.37c0-4.02-3.15-7.17-7.17-7.17h-281.06c-13.52,0-24.51-11-24.51-24.51s11-24.51,24.51-24.51h227.38c2.56,0,4.57-2.01,4.57-4.57s-2.01-4.57-4.57-4.57H229.78c-12.49,0-22.65-10.16-22.65-22.65v-29.7c0-3.04,2.46-5.5,5.5-5.5s5.5,2.46,5.5,5.5v29.7c0,6.42,5.23,11.65,11.65,11.65h266.57c8.58,0,15.57,6.98,15.57,15.57s-6.98,15.57-15.57,15.57h-227.38c-7.45,0-13.51,6.06-13.51,13.51s6.06,13.51,13.51,13.51h281.06c10.19,0,18.17,7.98,18.17,18.17v.37c0,3.04-2.46,5.5-5.5,5.5Z"/><path class="cls-2" d="m165.4,444.52c.32.18.65.38.98.6.33.23.68.48,1.04.77.27-.26.56-.43.88-.5.32-.07.68-.04,1.08.1.7.24,1.13.59,1.3,1.04s.1,1.13-.2,2.05l-.87,2.65-.04.13c-.25.71-.63,1.19-1.15,1.43-.52.24-1.16.22-1.92-.04-.47-.16-.81-.38-1.01-.66-.2-.28-.35-.78-.46-1.5-.12-.86-.44-1.59-.96-2.2-.52-.61-1.18-1.06-2-1.34-1.17-.41-2.17-.47-3-.21s-1.39.83-1.69,1.69c-.23.66-.22,1.26.03,1.8.25.54.96,1.33,2.16,2.37l3.46,2.9c1.7,1.47,2.78,2.85,3.25,4.16.46,1.3.41,2.79-.17,4.44-.81,2.36-2.11,3.93-3.9,4.72s-3.96.74-6.51-.15l-.13-.04-1.9,4.6c-.26.63-.61,1.03-1.04,1.21-.43.18-1,.15-1.7-.09-.59-.2-.96-.49-1.14-.85-.17-.36-.15-.86.07-1.49l.12-.34,2.04-4.87c-.46-.25-.9-.55-1.33-.88-.43-.33-.86-.72-1.28-1.15-.31.21-.62.33-.93.36-.31.03-.72-.04-1.23-.22-.77-.27-1.24-.64-1.39-1.12s-.06-1.22.29-2.22l.9-2.6c.32-.93.72-1.54,1.21-1.84s1.1-.32,1.84-.06c1.12.38,1.69,1.25,1.72,2.61.01.34.02.59.03.75.08.78.5,1.53,1.26,2.25.76.72,1.73,1.28,2.9,1.68,1.06.37,1.97.41,2.73.14.76-.27,1.29-.84,1.58-1.7.4-1.14-.49-2.62-2.64-4.44l-.11-.09-3.41-2.91c-1.36-1.12-2.23-2.37-2.63-3.73-.39-1.36-.32-2.83.23-4.42.74-2.14,1.94-3.58,3.59-4.32,1.65-.73,3.74-.75,6.27-.03l.76-1.66c.24-.56.58-.93,1.03-1.11.45-.18.96-.17,1.55.03.6.21,1.02.5,1.26.88.24.38.27.81.11,1.3l-.1.28-.82,1.83Z"/><path class="cls-2" d="m218.9,459.23c-2.11,0-4.13-1.22-5.03-3.28-1.23-2.78.03-6.03,2.81-7.25l26.13-11.54c2.78-1.23,6.03.03,7.25,2.81,1.23,2.78-.03,6.03-2.81,7.25l-26.13,11.54c-.72.32-1.48.47-2.22.47Z"/><path class="cls-2" d="m237.91,478.57c-.47,0-.94-.06-1.41-.18l-23.08-6.11c-2.94-.78-4.69-3.79-3.91-6.72.78-2.94,3.8-4.68,6.72-3.91l23.08,6.11c2.94.78,4.69,3.79,3.91,6.72-.65,2.46-2.88,4.09-5.31,4.09Z"/><path class="cls-2" d="m227.39,507.17c-1.68,0-3.34-.77-4.42-2.22l-15.96-21.48c-1.81-2.44-1.3-5.88,1.13-7.7,2.44-1.81,5.88-1.31,7.7,1.13l15.96,21.48c1.81,2.44,1.3,5.88-1.13,7.7-.99.73-2.14,1.09-3.28,1.09Z"/><path class="cls-2" d="m73.85,478.78c-1.94,0-3.82-1.03-4.82-2.85-1.47-2.66-.5-6,2.16-7.47l25.02-13.78c2.66-1.47,6-.5,7.47,2.16,1.47,2.66.5,6-2.16,7.47l-25.02,13.78c-.84.46-1.75.68-2.65.68Z"/><path class="cls-2" d="m101.77,451.46c-.31,0-.63-.03-.94-.08l-23.52-4.07c-2.99-.52-5-3.37-4.48-6.36.52-2.99,3.37-5,6.36-4.48l23.52,4.07c2.99.52,5,3.36,4.48,6.36-.46,2.68-2.79,4.56-5.41,4.56Z"/><path class="cls-2" d="m103.99,437.98c-1.52,0-3.03-.62-4.11-1.85l-17.78-20c-2.02-2.27-1.81-5.75.46-7.76,2.27-2.02,5.75-1.81,7.76.46l17.78,20c2.02,2.27,1.81,5.75-.46,7.76-1.05.93-2.35,1.39-3.65,1.39Z"/><circle class="cls-1" cx="98.87" cy="73.07" r="27.98"/><path class="cls-2" d="m98.87,106.55c-18.46,0-33.48-15.02-33.48-33.48s15.02-33.48,33.48-33.48,33.48,15.02,33.48,33.48-15.02,33.48-33.48,33.48Zm0-55.96c-12.4,0-22.48,10.08-22.48,22.48s10.08,22.48,22.48,22.48,22.48-10.08,22.48-22.48-10.08-22.48-22.48-22.48Z"/><path class="cls-1" d="m80.38,186.03c13.5,50.45,63.95,79.58,113.7,66.09,50.45-12.79,79.58-63.96,66.79-113.7-6.4-24.16-22.02-44.06-43.35-56.85-71.06-41.21-158.47,23.45-137.15,104.46h0Z"/><path class="cls-2" d="m169.49,260.94c-16.84,0-33.43-4.38-48.34-12.96-22.79-13.12-39.16-34.61-46.09-60.53,0,0,0-.01,0-.02-10.34-39.28,3.25-78.94,35.46-103.49,32.52-24.79,74.58-27.52,109.76-7.12,23,13.8,39.28,35.16,45.9,60.2,6.67,25.93,2.88,52.77-10.66,75.59-13.33,22.47-34.67,38.4-60.09,44.84-8.58,2.33-17.29,3.48-25.94,3.48Zm-83.8-76.31c6.17,23.06,20.71,42.17,40.95,53.82,20,11.51,43.44,14.48,65.99,8.37,22.66-5.75,41.6-19.88,53.43-39.82,12.04-20.3,15.41-44.16,9.48-67.21-5.88-22.22-20.39-41.23-40.85-53.5-31.19-18.09-68.58-15.65-97.5,6.39-28.61,21.81-40.68,57.04-31.5,91.94Z"/><path class="cls-2" d="m177.56,185.23h10.21c2.18,0,3.74.4,4.66,1.19s1.38,2.11,1.38,3.94-.47,3.21-1.4,4.04c-.93.82-2.48,1.24-4.63,1.24h-32.12c-2.15,0-3.7-.41-4.63-1.24-.93-.82-1.4-2.17-1.4-4.04s.45-3.15,1.35-3.94c.9-.79,2.46-1.19,4.68-1.19h10.21v-23.09h-5.37c-2.12,0-3.64-.4-4.56-1.21s-1.38-2.15-1.38-4.01.44-3.2,1.33-3.99c.89-.79,2.42-1.19,4.61-1.19h14.3c.89,0,1.57.18,2.04.55.48.36.71.86.71,1.5v31.45Zm-6.84-54.97c2.31,0,3.85.44,4.61,1.33.76.89,1.14,3.01,1.14,6.37s-.34,5.23-1.02,6.01c-.68.78-2.29,1.16-4.82,1.16s-4.06-.36-4.77-1.09c-.71-.73-1.07-2.19-1.07-4.37,0-4.05.36-6.63,1.09-7.74.73-1.11,2.34-1.66,4.85-1.66Z"/><path class="cls-2" d="m169.88,226.14c-10.75,0-21.35-2.79-30.88-8.28-14.55-8.38-25-22.1-29.43-38.63,0,0,0-.01,0-.02-6.6-25.08,2.08-50.4,22.64-66.08,20.76-15.83,47.61-17.57,70.07-4.54,14.69,8.81,25.08,22.45,29.31,38.43,4.26,16.56,1.84,33.69-6.8,48.26-8.51,14.35-22.14,24.52-38.38,28.64-5.46,1.48-11.01,2.22-16.52,2.22Zm-49.68-49.74c3.66,13.68,12.29,25.02,24.29,31.93,11.86,6.83,25.75,8.58,39.12,4.96,13.47-3.42,24.7-11.79,31.71-23.61,7.14-12.04,9.14-26.2,5.62-39.88-3.48-13.16-12.1-24.45-24.25-31.74-18.47-10.71-40.65-9.27-57.81,3.81-16.97,12.93-24.12,33.82-18.68,54.52Z"/><path class="cls-2" d="m518.75,443.56c.35-.1.73-.19,1.12-.26.39-.07.82-.14,1.28-.19,0-.37.09-.7.27-.98.18-.28.45-.51.83-.69.67-.32,1.22-.38,1.65-.18s.87.74,1.3,1.6l1.26,2.49.06.12c.33.68.39,1.29.19,1.82s-.67.98-1.39,1.33c-.45.22-.84.3-1.18.24-.34-.05-.8-.3-1.38-.74-.69-.52-1.43-.82-2.23-.89-.8-.07-1.58.09-2.36.46-1.12.54-1.88,1.2-2.27,1.97s-.4,1.57,0,2.38c.3.63.73,1.04,1.29,1.25.55.21,1.62.26,3.2.15l4.5-.39c2.24-.16,3.99.06,5.23.66,1.25.6,2.25,1.69,3.02,3.27,1.09,2.25,1.28,4.28.57,6.09-.71,1.81-2.29,3.31-4.72,4.49l-.12.06,1.9,4.6c.26.63.29,1.16.12,1.59-.18.43-.6.81-1.27,1.13-.56.27-1.03.34-1.4.2s-.71-.5-1-1.1l-.16-.33-1.99-4.89c-.5.14-1.02.25-1.56.32-.54.07-1.11.1-1.72.09-.07.37-.21.68-.4.91-.2.24-.54.47-1.03.71-.74.36-1.33.42-1.77.19s-.9-.82-1.36-1.77l-1.2-2.47c-.43-.88-.57-1.6-.44-2.16.14-.55.56-1,1.27-1.34,1.06-.51,2.08-.3,3.06.64.25.23.43.41.55.51.61.5,1.44.73,2.48.7,1.04-.03,2.13-.31,3.24-.85,1.01-.49,1.69-1.1,2.03-1.83s.32-1.5-.08-2.32c-.53-1.09-2.2-1.52-5.01-1.28l-.14.02-4.47.35c-1.76.16-3.25-.1-4.49-.79-1.24-.69-2.22-1.78-2.96-3.3-.99-2.04-1.16-3.91-.5-5.59.65-1.69,2.13-3.17,4.42-4.44l-.63-1.71c-.22-.56-.24-1.07-.05-1.51.19-.44.56-.8,1.12-1.07.57-.28,1.08-.36,1.51-.26.43.1.76.38.99.85l.13.26.71,1.88Z"/><path class="cls-2" d="m463.37,463.56c-.74,0-1.5-.15-2.22-.47l-26.13-11.54c-2.78-1.23-4.04-4.47-2.81-7.25,1.23-2.78,4.48-4.04,7.25-2.81l26.13,11.54c2.78,1.23,4.04,4.47,2.81,7.25-.91,2.06-2.92,3.28-5.03,3.28Z"/><path class="cls-2" d="m444.36,482.9c-2.43,0-4.66-1.63-5.31-4.09-.78-2.94.97-5.95,3.91-6.72l23.08-6.11c2.93-.78,5.95.97,6.72,3.91.78,2.94-.97,5.95-3.91,6.72l-23.08,6.11c-.47.12-.95.18-1.41.18Z"/><path class="cls-2" d="m454.87,511.49c-1.14,0-2.29-.35-3.28-1.09-2.44-1.81-2.95-5.26-1.13-7.7l15.96-21.48c1.81-2.44,5.26-2.95,7.7-1.13,2.44,1.81,2.95,5.26,1.13,7.7l-15.96,21.48c-1.08,1.45-2.74,2.22-4.42,2.22Z"/><path class="cls-2" d="m608.42,483.11c-.9,0-1.81-.22-2.65-.68l-25.02-13.79c-2.66-1.47-3.63-4.81-2.16-7.47,1.46-2.66,4.81-3.63,7.47-2.16l25.02,13.79c2.66,1.47,3.63,4.81,2.16,7.47-1,1.82-2.88,2.85-4.82,2.85Z"/><path class="cls-2" d="m580.49,455.79c-2.63,0-4.95-1.89-5.41-4.56-.52-2.99,1.49-5.84,4.48-6.36l23.52-4.07c3-.51,5.84,1.49,6.36,4.48.52,2.99-1.49,5.84-4.48,6.36l-23.52,4.07c-.32.05-.63.08-.94.08Z"/><path class="cls-2" d="m578.28,442.31c-1.3,0-2.6-.46-3.65-1.39-2.27-2.02-2.47-5.49-.46-7.76l17.78-20c2.02-2.27,5.5-2.47,7.76-.46,2.27,2.02,2.47,5.49.46,7.76l-17.78,20c-1.09,1.22-2.6,1.85-4.11,1.85Z"/><rect class="cls-1" x="598.54" y="155.4" width="58.58" height="58.58"/><path class="cls-1" d="m608.42,130.47l-84.69,87.66-33.39-30.09-24.36,26.38,62.27,59.35,138.55-143.31v-35.07c-27.32,2.03-88.61.16-141.66-47.2-53.06,47.37-114.35,49.23-141.66,47.2v76.54c0,138.84,115.97,203.5,141.69,216.13,24.31-11.94,129.56-70.51,140.7-194.56"/><path class="cls-2" d="m525.17,393.56c-.83,0-1.66-.19-2.42-.56-13.83-6.79-49.51-26.42-82.12-61.95-41.57-45.3-62.65-98.83-62.65-159.11v-76.54c0-1.53.64-2.99,1.76-4.03,1.12-1.04,2.6-1.57,4.15-1.46,13.63,1.01,35.01.97,59.48-4.94,29.41-7.11,55.69-20.86,78.12-40.88,2.09-1.86,5.24-1.86,7.33,0,22.42,20.01,48.7,33.76,78.11,40.87,24.47,5.92,45.86,5.96,59.48,4.94,1.54-.11,3.03.42,4.15,1.46,1.12,1.04,1.76,2.5,1.76,4.03v35.07c0,1.43-.55,2.8-1.55,3.82l-138.55,143.31c-2.1,2.17-5.56,2.24-7.75.16l-62.27-59.35c-2.17-2.07-2.28-5.51-.25-7.71l24.36-26.38c2.04-2.21,5.49-2.37,7.72-.35l29.44,26.53,81-83.84c2.11-2.18,5.59-2.25,7.78-.13,2.18,2.11,2.25,5.59.13,7.78l-84.69,87.66c-2.06,2.13-5.44,2.25-7.64.26l-29.35-26.45-17,18.41,54.4,51.84,133.21-137.78v-27.02c-14.33.62-34.41-.11-56.97-5.56-29.6-7.16-56.22-20.66-79.19-40.17-22.97,19.51-49.59,33.02-79.19,40.17-22.55,5.45-42.64,6.17-56.97,5.56v70.71c0,57.44,20.1,108.47,59.75,151.67,29.59,32.25,61.76,50.84,76.44,58.3,13.58-6.91,43.14-23.9,71.34-52.92,37.77-38.88,59.26-84.63,63.88-135.98.27-3.03,2.93-5.27,5.97-4.99,3.03.27,5.26,2.94,4.99,5.97-4.84,53.93-27.36,101.93-66.94,142.66-31.22,32.13-64.11,50.11-76.81,56.35-.76.38-1.6.56-2.43.56Z"/><circle class="cls-1" cx="245.03" cy="95.74" r="14.66"/><path class="cls-2" d="m245.03,115.9c-11.12,0-20.16-9.05-20.16-20.16s9.05-20.16,20.16-20.16,20.16,9.05,20.16,20.16-9.05,20.16-20.16,20.16Zm0-29.33c-5.05,0-9.16,4.11-9.16,9.16s4.11,9.16,9.16,9.16,9.16-4.11,9.16-9.16-4.11-9.16-9.16-9.16Z"/><circle class="cls-1" cx="103.99" cy="240.01" r="22.86"/><path class="cls-2" d="m103.99,268.36c-15.64,0-28.36-12.72-28.36-28.36s12.72-28.36,28.36-28.36,28.36,12.72,28.36,28.36-12.72,28.36-28.36,28.36Zm0-45.72c-9.57,0-17.36,7.79-17.36,17.36s7.79,17.36,17.36,17.36,17.36-7.79,17.36-17.36-7.79-17.36-17.36-17.36Z"/><circle class="cls-1" cx="158.53" cy="295.28" r="16.16"/><path class="cls-2" d="m158.53,316.95c-11.95,0-21.66-9.72-21.66-21.66s9.72-21.66,21.66-21.66,21.66,9.72,21.66,21.66-9.72,21.66-21.66,21.66Zm0-32.33c-5.88,0-10.66,4.78-10.66,10.66s4.78,10.66,10.66,10.66,10.66-4.78,10.66-10.66-4.78-10.66-10.66-10.66Z"/><circle class="cls-1" cx="78.85" cy="316.53" r="13.88"/><path class="cls-2" d="m78.85,335.91c-10.69,0-19.38-8.7-19.38-19.38s8.7-19.38,19.38-19.38,19.38,8.69,19.38,19.38-8.69,19.38-19.38,19.38Zm0-27.76c-4.62,0-8.38,3.76-8.38,8.38s3.76,8.38,8.38,8.38,8.38-3.76,8.38-8.38-3.76-8.38-8.38-8.38Z"/><circle class="cls-1" cx="126.4" cy="345.69" r="9.65"/><path class="cls-2" d="m126.4,360.84c-8.35,0-15.15-6.79-15.15-15.15s6.79-15.15,15.15-15.15,15.15,6.79,15.15,15.15-6.79,15.15-15.15,15.15Zm0-19.29c-2.29,0-4.15,1.86-4.15,4.15s1.86,4.15,4.15,4.15,4.15-1.86,4.15-4.15-1.86-4.15-4.15-4.15Z"/><circle class="cls-1" cx="147.99" cy="375.71" r="7.35"/><path class="cls-2" d="m147.99,388.56c-7.09,0-12.85-5.77-12.85-12.85s5.77-12.85,12.85-12.85,12.85,5.77,12.85,12.85-5.77,12.85-12.85,12.85Zm0-14.71c-1.02,0-1.85.83-1.85,1.85s.83,1.85,1.85,1.85,1.85-.83,1.85-1.85-.83-1.85-1.85-1.85Z"/><circle class="cls-1" cx="127.37" cy="397.87" r="5.72"/><path class="cls-2" d="m127.39,409.08c-4.21,0-8.25-2.38-10.16-6.44-1.28-2.71-1.42-5.76-.41-8.58,1.01-2.82,3.07-5.07,5.78-6.35,2.71-1.28,5.75-1.42,8.57-.41s5.07,3.07,6.35,5.78h0c1.28,2.71,1.42,5.76.41,8.58-1.01,2.82-3.07,5.07-5.78,6.35-1.54.72-3.16,1.07-4.76,1.07Zm-.02-11.43s-.07.01-.09.02c-.03.01-.08.04-.11.12-.03.08,0,.14,0,.17.05.11.18.16.29.1.03-.01.08-.04.11-.12.03-.08,0-.14,0-.17h0s-.04-.08-.12-.11c-.03,0-.05-.01-.08-.01Z"/><path class="cls-2" d="m157.82,490.35c-18.2,0-33-14.81-33-33s14.81-33,33-33,33,14.81,33,33-14.81,33-33,33Zm0-55.01c-12.13,0-22,9.87-22,22s9.87,22,22,22,22-9.87,22-22-9.87-22-22-22Z"/><path class="cls-2" d="m157.82,507.17c-27.47,0-49.82-22.35-49.82-49.82s22.35-49.82,49.82-49.82,49.82,22.35,49.82,49.82-22.35,49.82-49.82,49.82Zm0-88.65c-21.41,0-38.82,17.42-38.82,38.82s17.42,38.82,38.82,38.82,38.82-17.42,38.82-38.82-17.42-38.82-38.82-38.82Z"/><path class="cls-2" d="m523.53,490.35c-18.2,0-33-14.81-33-33s14.81-33,33-33,33,14.81,33,33-14.81,33-33,33Zm0-55.01c-12.13,0-22,9.87-22,22s9.87,22,22,22,22-9.87,22-22-9.87-22-22-22Z"/><path class="cls-2" d="m523.53,507.17c-27.47,0-49.82-22.35-49.82-49.82s22.35-49.82,49.82-49.82,49.82,22.35,49.82,49.82-22.35,49.82-49.82,49.82Zm0-88.65c-21.41,0-38.82,17.42-38.82,38.82s17.42,38.82,38.82,38.82,38.82-17.42,38.82-38.82-17.42-38.82-38.82-38.82Z"/></svg>