<?xml version="1.0" encoding="UTF-8"?><svg id="Layer_1" xmlns="http://www.w3.org/2000/svg" viewBox="0 0 700 700"><defs><style>.cls-1{fill:#fff;}.cls-2{fill:#96151d;}</style></defs><circle class="cls-1" cx="345.33" cy="350" r="327.99"/><path class="cls-2" d="m345.33,686.99c-90.01,0-174.64-35.05-238.29-98.7-63.65-63.65-98.7-148.27-98.7-238.29S43.39,175.36,107.04,111.71C170.69,48.06,255.32,13.01,345.33,13.01s174.64,35.05,238.29,98.7c63.65,63.65,98.7,148.27,98.7,238.29s-35.05,174.64-98.7,238.29c-63.65,63.65-148.27,98.7-238.29,98.7Zm0-655.98c-85.21,0-165.31,33.18-225.56,93.43S26.34,264.79,26.34,350s33.18,165.31,93.43,225.56,140.35,93.43,225.56,93.43,165.31-33.18,225.56-93.43,93.43-140.35,93.43-225.56-33.18-165.31-93.43-225.56S430.53,31.01,345.33,31.01Z"/><rect class="cls-2" x="118.66" y="580.05" width="456.46" height="11"/><path class="cls-2" d="m288.18,618.97h-80.26c-3.04,0-5.5-2.46-5.5-5.5s2.46-5.5,5.5-5.5h80.26c3.04,0,5.5,2.46,5.5,5.5s-2.46,5.5-5.5,5.5Z"/><path class="cls-2" d="m346.19,618.97h-38.11c-3.04,0-5.5-2.46-5.5-5.5s2.46-5.5,5.5-5.5h38.11c3.04,0,5.5,2.46,5.5,5.5s-2.46,5.5-5.5,5.5Z"/><path class="cls-2" d="m387.73,618.97h-21.81c-3.04,0-5.5-2.46-5.5-5.5s2.46-5.5,5.5-5.5h21.81c3.04,0,5.5,2.46,5.5,5.5s-2.46,5.5-5.5,5.5Z"/><path class="cls-2" d="m418.48,618.97h-11.93c-3.04,0-5.5-2.46-5.5-5.5s2.46-5.5,5.5-5.5h11.93c3.04,0,5.5,2.46,5.5,5.5s-2.46,5.5-5.5,5.5Z"/><path class="cls-2" d="m462.66,639.11h-80.26c-3.04,0-5.5-2.46-5.5-5.5s2.46-5.5,5.5-5.5h80.26c3.04,0,5.5,2.46,5.5,5.5s-2.46,5.5-5.5,5.5Z"/><path class="cls-2" d="m362.48,639.11h-38.11c-3.04,0-5.5-2.46-5.5-5.5s2.46-5.5,5.5-5.5h38.11c3.04,0,5.5,2.46,5.5,5.5s-2.46,5.5-5.5,5.5Z"/><path class="cls-2" d="m304.66,639.11h-21.81c-3.04,0-5.5-2.46-5.5-5.5s2.46-5.5,5.5-5.5h21.81c3.04,0,5.5,2.46,5.5,5.5s-2.46,5.5-5.5,5.5Z"/><path class="cls-2" d="m261.01,639.1h-11.93c-3.04,0-5.5-2.46-5.5-5.5s2.46-5.5,5.5-5.5h11.93c3.04,0,5.5,2.46,5.5,5.5s-2.46,5.5-5.5,5.5Z"/><path class="cls-2" d="m497.59,379.04c1.65,1.33,3.29,2.8,4.93,4.42,1.64,1.62,3.34,3.42,5.12,5.42,1.77-1.2,3.6-1.84,5.5-1.93,1.89-.08,3.9.47,6.03,1.66,3.72,2.09,5.82,4.49,6.29,7.2.47,2.71-.61,6.52-3.26,11.42l-7.63,14.13-.38.68c-2.13,3.8-4.79,6.09-7.99,6.9-3.2.8-6.8.08-10.83-2.18-2.5-1.41-4.18-3-5.03-4.77-.85-1.77-1.2-4.76-1.03-8.96.2-4.98-.85-9.46-3.16-13.45-2.3-3.99-5.62-7.2-9.95-9.62-6.23-3.49-11.82-4.91-16.78-4.25-4.96.66-8.72,3.27-11.28,7.82-1.96,3.49-2.52,6.9-1.69,10.21.84,3.31,4.1,8.52,9.81,15.61l16.64,19.97c8.13,10.05,12.84,19.01,14.12,26.87,1.28,7.86-.55,16.19-5.49,24.99-7.03,12.53-15.99,20.1-26.9,22.71-10.9,2.62-23.15.11-36.74-7.51l-.68-.38-15.47,24.11c-2.14,3.29-4.53,5.22-7.15,5.8-2.62.57-5.79-.18-9.51-2.27-3.11-1.75-4.97-3.74-5.56-5.97-.6-2.23.04-5.02,1.92-8.36l1.02-1.82,16.53-25.46c-2.33-1.91-4.54-4.02-6.62-6.34-2.09-2.32-4.12-4.93-6.09-7.83-1.99.88-3.87,1.25-5.63,1.11-1.77-.14-4.02-.98-6.75-2.51-4.1-2.3-6.34-4.88-6.73-7.75-.39-2.86.91-6.95,3.89-12.27l7.73-13.78c2.77-4.93,5.68-7.99,8.74-9.17,3.06-1.18,6.56-.66,10.51,1.55,5.92,3.32,8.27,8.83,7.04,16.53-.29,1.93-.49,3.37-.61,4.3-.33,4.51,1.29,9.18,4.85,14.03,3.57,4.85,8.46,9.02,14.69,12.51,5.62,3.15,10.71,4.34,15.29,3.57,4.58-.78,8.14-3.44,10.7-8,3.41-6.07-.07-15.36-10.42-27.86l-.56-.61-16.35-19.96c-6.53-7.76-10.21-15.69-11.05-23.8-.84-8.11,1.1-16.38,5.83-24.8,6.39-11.39,14.64-18.31,24.76-20.77,10.11-2.46,21.95-.38,35.51,6.23l6.02-8.6c1.93-2.91,4.25-4.65,6.97-5.22,2.72-.57,5.63.02,8.74,1.76,3.19,1.79,5.26,3.88,6.22,6.26.96,2.38.71,4.87-.74,7.45l-.83,1.48-6.53,9.51Z"/><path class="cls-1" d="m421.57,215.28s-22.61-15.41-24.85-44.18c0,0-4.44-42.83,28.21-64.53,0,0,34.51-26.04,75.64-4.7,0,0,15.16-37.63,49.13-37.63,0,0,37.83-2.03,49.65,38.15,0,0,2.51,12.75,1.71,21.51,0,0,42.58.4,50.15,44.57,0,0,6.77,35.02-27.46,52.93,0,0-11.14,4.78-27.86,5.17"/><path class="cls-2" d="m595.88,232.08c-2.98,0-5.42-2.38-5.5-5.37-.07-3.04,2.33-5.56,5.37-5.63,14.25-.34,24.25-4.11,25.67-4.67,29.79-15.75,24.62-45.65,24.38-46.92-6.69-39.07-43.26-40.07-44.81-40.1l-5.93-.09.52-5.91c.66-7.24-1.26-17.98-1.58-19.71-10.55-35.34-43.67-33.97-44.01-33.96h-.29c-12.32,0-23.39,5.61-32.92,16.66-7.44,8.62-11.07,17.45-11.11,17.54l-2.27,5.59-5.36-2.77c-37.42-19.42-68.5,3.25-69.8,4.22l-.26.18c-29.41,19.55-25.82,59-25.78,59.39v.13c2.02,25.84,22.27,39.92,22.47,40.06,2.51,1.71,3.16,5.13,1.45,7.64-1.71,2.51-5.13,3.16-7.64,1.45-1.01-.69-24.79-17.23-27.23-48.23-.27-2.77-3.99-46.47,30.52-69.52,2.81-2.07,35.76-25.3,76.23-7.53,2.07-3.9,5.44-9.47,10.22-15.06,11.56-13.54,25.87-20.71,41.37-20.74,1.47-.05,11.36-.22,22.61,4.43,11.09,4.58,25.72,14.83,32.44,37.67l.12.49c.09.45,1.79,9.23,1.96,17.57,4.64.66,11.64,2.2,19,5.77,11.73,5.69,26.62,17.74,30.92,42.84.19,1.01,1.77,10.4-.96,21.98-2.62,11.15-9.85,26.58-29.37,36.8l-.38.18c-.49.21-12.32,5.2-29.89,5.62-.04,0-.09,0-.13,0Z"/><path class="cls-2" d="m456.58,326.98c-.72,0-1.46-.14-2.16-.44-2.58-1.1-3.92-3.96-3.11-6.65l24.2-80.25h-18.94c-1.88,0-3.63-.96-4.64-2.54-1.01-1.58-1.14-3.58-.35-5.28l27.44-58.9c.9-1.94,2.85-3.18,4.99-3.18h36.63c2.03,0,3.89,1.12,4.85,2.9.96,1.79.85,3.96-.27,5.65l-18.97,28.46h12c1.96,0,3.76,1.04,4.75,2.73.99,1.69,1,3.77.04,5.48l-61.68,109.22c-1,1.78-2.86,2.8-4.79,2.8Zm8.63-98.33h17.71c1.74,0,3.38.82,4.42,2.22,1.04,1.4,1.35,3.2.85,4.87l-12.04,39.91,32.69-57.88h-12.86c-2.03,0-3.89-1.12-4.85-2.9-.96-1.79-.85-3.96.27-5.65l18.97-28.46h-22.85l-22.32,47.9Z"/><path class="cls-2" d="m507.97,297.55c-.88,0-1.76-.21-2.59-.65-2.68-1.43-3.69-4.77-2.26-7.44l30.65-57.31c1.43-2.68,4.76-3.69,7.44-2.26,2.68,1.43,3.69,4.77,2.26,7.44l-30.65,57.31c-.99,1.85-2.89,2.91-4.86,2.91Z"/><path class="cls-2" d="m540.21,297.55c-.88,0-1.76-.21-2.59-.65-2.68-1.43-3.69-4.77-2.26-7.44l30.64-57.31c1.43-2.68,4.76-3.69,7.44-2.26,2.68,1.43,3.69,4.77,2.26,7.44l-30.64,57.31c-.99,1.85-2.89,2.91-4.86,2.91Z"/><path class="cls-2" d="m444.08,582.84c-79.44,0-144.07-64.63-144.07-144.07s64.63-144.07,144.07-144.07,144.07,64.63,144.07,144.07-64.63,144.07-144.07,144.07Zm0-277.13c-73.37,0-133.07,59.69-133.07,133.07s59.69,133.07,133.07,133.07,133.07-59.69,133.07-133.07-59.69-133.07-133.07-133.07Z"/><path class="cls-2" d="m168.4,259.26c-34.92,0-63.33-28.41-63.33-63.33s28.41-63.33,63.33-63.33,63.33,28.41,63.33,63.33-28.41,63.33-63.33,63.33Zm0-115.65c-28.85,0-52.33,23.47-52.33,52.33s23.47,52.33,52.33,52.33,52.33-23.47,52.33-52.33-23.47-52.33-52.33-52.33Z"/><path class="cls-2" d="m168.51,201.15c-12.71,0-23.05-10.34-23.05-23.05s10.34-23.05,23.05-23.05,23.05,10.34,23.05,23.05-10.34,23.05-23.05,23.05Zm0-35.1c-6.64,0-12.05,5.41-12.05,12.05s5.41,12.05,12.05,12.05,12.05-5.41,12.05-12.05-5.41-12.05-12.05-12.05Z"/><path class="cls-2" d="m203.58,245.46h-11v-24.26c0-8.42-11.75-15.53-25.67-15.53s-25.67,7.11-25.67,15.53v21.03h-11v-21.03c0-14.88,16.11-26.53,36.67-26.53s36.67,11.65,36.67,26.53v24.26Z"/><path class="cls-2" d="m309.93,188.77c-28.01,0-50.8-22.79-50.8-50.8s22.79-50.8,50.8-50.8,50.8,22.79,50.8,50.8-22.79,50.8-50.8,50.8Zm0-90.59c-21.94,0-39.8,17.85-39.8,39.8s17.85,39.8,39.8,39.8,39.8-17.85,39.8-39.8-17.85-39.8-39.8-39.8Z"/><path class="cls-2" d="m309.99,147.45c-10.44,0-18.94-8.5-18.94-18.94s8.5-18.94,18.94-18.94,18.94,8.5,18.94,18.94-8.5,18.94-18.94,18.94Zm0-26.88c-4.38,0-7.94,3.56-7.94,7.94s3.56,7.94,7.94,7.94,7.94-3.56,7.94-7.94-3.56-7.94-7.94-7.94Z"/><path class="cls-2" d="m338.13,180.1h-11v-18.58c0-5.01-7.54-10.6-18.37-10.6s-18.37,5.59-18.37,10.6v16.1h-11v-16.1c0-12.11,12.9-21.6,29.37-21.6s29.37,9.49,29.37,21.6v18.58Z"/><rect class="cls-2" x="216.73" y="152.6" width="50.87" height="11" transform="translate(-38.32 87.63) rotate(-19.04)"/><path class="cls-2" d="m184.65,285.28c-2.43,0-4.66-1.62-5.31-4.09l-6.92-26.01c-.78-2.94.97-5.95,3.9-6.73,2.94-.78,5.95.97,6.73,3.9l6.92,26.01c.78,2.94-.97,5.95-3.9,6.73-.47.13-.95.19-1.42.19Z"/><path class="cls-2" d="m196.75,362.6c-20.36,0-36.93-16.57-36.93-36.93s16.57-36.93,36.93-36.93,36.93,16.57,36.93,36.93-16.57,36.93-36.93,36.93Zm0-62.86c-14.3,0-25.93,11.63-25.93,25.93s11.63,25.93,25.93,25.93,25.93-11.63,25.93-25.93-11.63-25.93-25.93-25.93Z"/><path class="cls-1" d="m147.96,492.22l-16.39,41.08s-3.07,6.24-10.2,12.03l-46.23,38.4-19.29-27.79,36.21-33.76,21.23-48.84"/><path class="cls-2" d="m75.14,589.23c-.25,0-.5-.02-.74-.05-1.53-.21-2.9-1.05-3.78-2.31l-19.29-27.79c-1.56-2.25-1.23-5.3.77-7.16l35.37-32.98,20.77-47.79,10.09,4.38-21.23,48.84c-.3.69-.74,1.32-1.29,1.83l-32.73,30.51,13.15,18.95,41.61-34.56c5.48-4.45,8.22-9.2,8.71-10.1l16.28-40.82,10.22,4.08-16.39,41.08c-.05.13-.11.26-.17.39-.15.3-3.69,7.39-11.67,13.87l-46.18,38.36c-.99.83-2.24,1.27-3.51,1.27Z"/><path class="cls-2" d="m123.04,380.74h-51.77c-3.04,0-5.5-2.46-5.5-5.5s2.46-5.5,5.5-5.5h51.77c3.04,0,5.5,2.46,5.5,5.5s-2.46,5.5-5.5,5.5Z"/><path class="cls-2" d="m104.56,410.53h-52.66c-3.04,0-5.5-2.46-5.5-5.5s2.46-5.5,5.5-5.5h52.66c3.04,0,5.5,2.46,5.5,5.5s-2.46,5.5-5.5,5.5Z"/><path class="cls-2" d="m207.71,588.86h-32.09c-2.92,0-5.33-2.28-5.49-5.19l-4.29-75.86-51.26-26.88c-1.35-.67-8.82-4.71-11.49-13.76-2.17-7.36-.48-15.6,5.03-24.51l28.73-48.98c1.34-3.25,9.44-21.15,28.02-27.93,13.73-5.01,29.45-2.7,46.74,6.87l20.86,8.4,45.71-8.78c1.89-.54,6.92-1.62,10.63.73,1.98,1.26,3.26,3.26,3.6,5.63.04.26.06.52.06.78v24.35c0,.11,0,.22,0,.33-.1,1.66-1.23,7.21-11.48,9.65l-36.93,12.2c-.13.04-.26.08-.39.11-.69.17-6.97,1.63-15.94.08-.13-.02-.25-.05-.38-.08l-26.05-6.41-29.69,37.48,26.91,15.78c1.5.88,16.76,10.51,14.72,37.05v73.46c0,3.04-2.46,5.5-5.5,5.5Zm-26.89-11h21.39v-68.17c0-.15,0-.29.02-.44,1.62-20.1-8.83-26.62-9.28-26.89l-32.4-18.99c-1.37-.81-2.33-2.17-2.62-3.73-.29-1.56.11-3.18,1.1-4.43l35.82-45.21c1.34-1.69,3.53-2.44,5.62-1.92l29.29,7.21c6.01,1.01,10.27.25,11.08.08l36.91-12.2c.16-.05.33-.1.5-.14,1.67-.38,2.66-.8,3.21-1.09v-19.19c-.14.03-.27.07-.37.1-.19.06-.38.11-.58.14l-47.57,9.14c-1.04.2-2.11.1-3.09-.3l-22.68-9.14c-.21-.09-.42-.19-.62-.3-14.44-8.06-27.17-10.19-37.82-6.34-15.28,5.53-21.73,21.86-21.79,22.02-.11.28-.24.56-.39.82l-28.98,49.4s-.05.08-.07.12c-3.78,6.09-5.09,11.32-3.9,15.54,1.37,4.83,5.82,7.11,5.86,7.13.07.03.08.04.15.08l54.09,28.36c1.71.9,2.83,2.63,2.94,4.56l4.17,73.79Z"/></svg>