<svg xmlns="http://www.w3.org/2000/svg" width="21" height="22" viewBox="-5333 -9605.05 21 22"><g data-name="CompositeLayer"><path d="M-5333-9594.1a10.5 11 0 1 1 0 .1z" fill="#96151d" fill-rule="evenodd" data-name="Ellipse 59"/><path d="M-5325.41-9592.509c2.05 3.554 4.776 4.595 5.714 4.858a.465.465 0 0 0 .514-.193l1.147-1.737a.468.468 0 0 0-.08-.608l-1.827-1.62a.468.468 0 0 0-.544-.055l-1.437.83s-.955-.612-1.962-2.356c-1.007-1.744-1.059-2.877-1.059-2.877l1.437-.83a.468.468 0 0 0 .224-.498l-.49-2.392a.468.468 0 0 0-.485-.373l-2.078.125a.465.465 0 0 0-.425.348c-.24.944-.701 3.825 1.35 7.378Z" fill="#fff" fill-rule="evenodd" data-name="Path 9532"/></g></svg>